<svg width="1492" height="495" viewBox="0 0 1492 495" fill="none" xmlns="http://www.w3.org/2000/svg">
<g opacity="0.6">
<path d="M1523.74 314.497L1524.99 311.941L1486.21 256.914L1484.96 259.47L1523.74 314.497Z" fill="url(#paint0_linear_180_1003)"/>
<path d="M1523.74 314.497L1524.99 311.941L1486.21 256.914L1484.96 259.47L1523.74 314.497Z" fill="url(#paint1_linear_180_1003)"/>
<path d="M1523.72 314.514L1524.96 311.938L1438.46 191.454L1437.22 194.03L1523.72 314.514Z" fill="url(#paint2_linear_180_1003)"/>
<path d="M1523.77 314.619L1524.9 311.899L1375.75 132.821L1374.62 135.54L1523.77 314.619Z" fill="url(#paint3_linear_180_1003)"/>
<path d="M1523.86 314.657L1524.85 311.793L1283.26 68.74L1282.27 71.6045L1523.86 314.657Z" fill="url(#paint4_linear_180_1003)"/>
<path d="M1523.96 314.728L1524.75 311.688L1151.91 29.9628L1151.12 33.0036L1523.96 314.728Z" fill="url(#paint5_linear_180_1003)"/>
<path d="M1524.01 314.776L1524.66 311.637L1002.67 0.00984768L1002.03 3.14906L1524.01 314.776Z" fill="url(#paint6_linear_180_1003)"/>
<path d="M1524.1 314.861L1524.59 311.643L826.59 0.0641557L826.095 3.28186L1524.1 314.861Z" fill="url(#paint7_linear_180_1003)"/>
<path d="M1524.15 314.848L1524.54 311.59L635.66 -6.98932e-05L635.268 3.25792L1524.15 314.848Z" fill="url(#paint8_linear_180_1003)"/>
<path d="M1524.17 314.874L1524.47 311.587L462.589 29.8042L462.289 33.0907L1524.17 314.874Z" fill="url(#paint9_linear_180_1003)"/>
<path d="M1524.22 314.839L1524.42 311.531L298.536 94.2581L298.334 97.5663L1524.22 314.839Z" fill="url(#paint10_linear_180_1003)"/>
<path d="M1524.33 314.921L1524.43 311.599L155.272 191.232L155.172 194.554L1524.33 314.921Z" fill="url(#paint11_linear_180_1003)"/>
<path d="M1524.33 314.803L1524.37 311.478L65.829 268.452L65.7953 271.777L1524.33 314.803Z" fill="url(#paint12_linear_180_1003)"/>
<path d="M14.9923 369.741L1524.34 314.406L1524.3 311.081L14.9504 366.416L14.9923 369.741Z" fill="url(#paint13_linear_180_1003)"/>
<path d="M0.164503 492.193L1524.4 314.301L1524.27 310.983L0.0312494 488.875L0.164503 492.193Z" fill="url(#paint14_linear_180_1003)"/>
<path d="M0.240915 636.973L1524.44 314.647L1524.2 311.346L0.000746886 633.672L0.240915 636.973Z" fill="url(#paint15_linear_180_1003)"/>
<path d="M18.1591 774.121L1524.57 315.478L1524.23 312.204L17.8161 770.847L18.1591 774.121Z" fill="url(#paint16_linear_180_1003)"/>
<path d="M42.2861 917.479L1524.41 313.712L1523.96 310.477L41.8327 914.244L42.2861 917.479Z" fill="url(#paint17_linear_180_1003)"/>
<path d="M57.1728 1019.13L1524.43 313.792L1523.9 310.59L56.6433 1015.93L57.1728 1019.13Z" fill="url(#paint18_linear_180_1003)"/>
</g>
<defs>
<linearGradient id="paint0_linear_180_1003" x1="1498.96" y1="274.717" x2="1498.02" y2="275.378" gradientUnits="userSpaceOnUse">
<stop stop-color="#FCB80A" stop-opacity="0.77"/>
<stop offset="1" stop-color="#666666" stop-opacity="0"/>
</linearGradient>
<linearGradient id="paint1_linear_180_1003" x1="1498.96" y1="274.717" x2="1498.02" y2="275.378" gradientUnits="userSpaceOnUse">
<stop stop-color="#FCB80A" stop-opacity="0.77"/>
<stop offset="1" stop-color="#666666" stop-opacity="0"/>
</linearGradient>
<linearGradient id="paint2_linear_180_1003" x1="1466.81" y1="230.644" x2="1465.86" y2="231.319" gradientUnits="userSpaceOnUse">
<stop stop-color="#FCB80A" stop-opacity="0.77"/>
<stop offset="1" stop-color="#666666" stop-opacity="0"/>
</linearGradient>
<linearGradient id="paint3_linear_180_1003" x1="1424.56" y1="191.146" x2="1423.63" y2="191.918" gradientUnits="userSpaceOnUse">
<stop stop-color="#FCB80A" stop-opacity="0.77"/>
<stop offset="1" stop-color="#666666" stop-opacity="0"/>
</linearGradient>
<linearGradient id="paint4_linear_180_1003" x1="1362.27" y1="147.959" x2="1361.37" y2="148.848" gradientUnits="userSpaceOnUse">
<stop stop-color="#FCB80A" stop-opacity="0.77"/>
<stop offset="1" stop-color="#666666" stop-opacity="0"/>
</linearGradient>
<linearGradient id="paint5_linear_180_1003" x1="1273.79" y1="121.806" x2="1272.98" y2="122.879" gradientUnits="userSpaceOnUse">
<stop stop-color="#FCB80A" stop-opacity="0.77"/>
<stop offset="1" stop-color="#666666" stop-opacity="0"/>
</linearGradient>
<linearGradient id="paint6_linear_180_1003" x1="1173.27" y1="101.617" x2="1172.56" y2="102.821" gradientUnits="userSpaceOnUse">
<stop stop-color="#FCB80A" stop-opacity="0.77"/>
<stop offset="1" stop-color="#666666" stop-opacity="0"/>
</linearGradient>
<linearGradient id="paint7_linear_180_1003" x1="1054.7" y1="101.65" x2="1054.1" y2="102.979" gradientUnits="userSpaceOnUse">
<stop stop-color="#FCB80A" stop-opacity="0.77"/>
<stop offset="1" stop-color="#666666" stop-opacity="0"/>
</linearGradient>
<linearGradient id="paint8_linear_180_1003" x1="926.13" y1="101.586" x2="925.638" y2="102.988" gradientUnits="userSpaceOnUse">
<stop stop-color="#FCB80A" stop-opacity="0.77"/>
<stop offset="1" stop-color="#666666" stop-opacity="0"/>
</linearGradient>
<linearGradient id="paint9_linear_180_1003" x1="809.58" y1="121.649" x2="809.193" y2="123.107" gradientUnits="userSpaceOnUse">
<stop stop-color="#FCB80A" stop-opacity="0.77"/>
<stop offset="1" stop-color="#666666" stop-opacity="0"/>
</linearGradient>
<linearGradient id="paint10_linear_180_1003" x1="699.108" y1="165.023" x2="698.841" y2="166.526" gradientUnits="userSpaceOnUse">
<stop stop-color="#FCB80A" stop-opacity="0.77"/>
<stop offset="1" stop-color="#666666" stop-opacity="0"/>
</linearGradient>
<linearGradient id="paint11_linear_180_1003" x1="602.651" y1="230.332" x2="602.516" y2="231.864" gradientUnits="userSpaceOnUse">
<stop stop-color="#FCB80A" stop-opacity="0.77"/>
<stop offset="1" stop-color="#666666" stop-opacity="0"/>
</linearGradient>
<linearGradient id="paint12_linear_180_1003" x1="542.408" y1="282.28" x2="542.362" y2="283.821" gradientUnits="userSpaceOnUse">
<stop stop-color="#FCB80A" stop-opacity="0.77"/>
<stop offset="1" stop-color="#666666" stop-opacity="0"/>
</linearGradient>
<linearGradient id="paint13_linear_180_1003" x1="1628.75" y1="308.339" x2="1627.8" y2="292.48" gradientUnits="userSpaceOnUse">
<stop stop-color="#FCB80A" stop-opacity="0.77"/>
<stop offset="1" stop-color="#666666" stop-opacity="0"/>
</linearGradient>
<linearGradient id="paint14_linear_180_1003" x1="1629.77" y1="299.759" x2="1627.59" y2="284.104" gradientUnits="userSpaceOnUse">
<stop stop-color="#FCB80A" stop-opacity="0.77"/>
<stop offset="1" stop-color="#666666" stop-opacity="0"/>
</linearGradient>
<linearGradient id="paint15_linear_180_1003" x1="1629.74" y1="290.123" x2="1626.17" y2="274.904" gradientUnits="userSpaceOnUse">
<stop stop-color="#FCB80A" stop-opacity="0.77"/>
<stop offset="1" stop-color="#666666" stop-opacity="0"/>
</linearGradient>
<linearGradient id="paint16_linear_180_1003" x1="1628.57" y1="281.54" x2="1623.78" y2="266.915" gradientUnits="userSpaceOnUse">
<stop stop-color="#FCB80A" stop-opacity="0.77"/>
<stop offset="1" stop-color="#666666" stop-opacity="0"/>
</linearGradient>
<linearGradient id="paint17_linear_180_1003" x1="1626.65" y1="269.759" x2="1620.69" y2="255.927" gradientUnits="userSpaceOnUse">
<stop stop-color="#FCB80A" stop-opacity="0.77"/>
<stop offset="1" stop-color="#666666" stop-opacity="0"/>
</linearGradient>
<linearGradient id="paint18_linear_180_1003" x1="1625.59" y1="262.834" x2="1618.91" y2="249.618" gradientUnits="userSpaceOnUse">
<stop stop-color="#FCB80A" stop-opacity="0.77"/>
<stop offset="1" stop-color="#666666" stop-opacity="0"/>
</linearGradient>
</defs>
</svg>
