<svg width="816" height="531" viewBox="0 0 816 531" fill="none" xmlns="http://www.w3.org/2000/svg">
<path d="M729.369 512.106H19.627V529.562H729.369V512.106Z" fill="white"/>
<path d="M792.729 282.479H375.614C363.227 282.479 353.186 272.423 353.186 260.018V23.4604C353.186 11.0559 363.227 1 375.614 1H792.729C805.116 1 815.157 11.0559 815.157 23.4604V260.028C815.157 272.432 805.116 282.479 792.729 282.479Z" fill="white"/>
<path d="M584.176 201.38C626.697 201.38 661.166 166.86 661.166 124.278C661.166 81.6961 626.697 47.1765 584.176 47.1765C541.655 47.1765 507.186 81.6961 507.186 124.278C507.186 166.86 541.655 201.38 584.176 201.38Z" fill="#FCB80A"/>
<path d="M609.84 106.668H558.513V141.897H609.84V106.668Z" fill="#FC6414"/>
<path d="M729.369 512.106H19.627V529.562H729.369V512.106Z" stroke="#182128" stroke-width="2" stroke-miterlimit="10"/>
<path d="M583.496 282.795L582.836 282.488L579.294 280.849L566.754 275.021H566.726L562.849 273.228L525.689 262.741H525.679L510.229 258.379L506.649 266.355L499.394 282.488L499.26 282.795L498.58 284.29C498.522 284.415 498.475 284.54 498.417 284.664L480.727 323.354L464.646 351.221C464.636 351.231 464.627 351.25 464.627 351.259C464.167 351.997 456.672 363.951 448.947 370.355C448.928 370.374 448.909 370.393 448.89 370.403C447.301 371.726 446.085 372.799 445.061 373.681C445.013 373.71 444.975 373.739 444.936 373.777C442.39 375.934 440.916 376.893 437.384 377.468C437.384 377.477 437.374 377.477 437.365 377.468C437.365 377.468 437.365 377.477 437.355 377.468C435.958 377.698 434.235 377.871 431.995 378.033C430.702 378.12 429.199 377.688 427.534 377.746C423.59 377.899 419.101 375.34 414.477 372.598C414.343 372.521 414.219 372.445 414.085 372.358C413.932 372.272 413.778 372.186 413.635 372.09C413.501 372.004 413.376 371.927 413.242 371.85C407.279 368.121 401.296 363.127 396.644 358.871C396.022 358.305 395.39 357.711 394.758 357.116C391.571 354.116 389.225 351.681 388.268 350.665C388.125 350.521 388.01 350.406 387.933 350.32C387.866 350.243 387.799 350.166 387.722 350.09L364.73 324.015C364.691 323.967 364.644 323.92 364.605 323.872L364.423 323.661L363.141 322.117C362.088 320.852 361.035 319.577 359.982 318.312L340.875 295.353L326.9 280.101C325.837 279.085 324.765 278.107 323.693 277.158C316.59 270.774 311.948 267.687 307.497 265.338C307.487 265.329 307.477 265.319 307.458 265.319C303.189 263.057 299.082 261.475 293.119 258.293C288.61 255.887 282.561 254.401 276.645 253.48C266.651 251.927 257.05 252.004 255.93 252.023C255.921 252.023 255.921 252.023 255.921 252.023C255.854 252.023 255.825 252.023 255.825 252.023L255.499 252.042L254.705 252.1L246.597 252.666L233.32 240.347V230.723L232.995 224.578C233.024 224.588 233.1 224.626 233.32 224.703C233.588 224.818 234.077 225.009 234.948 225.355C235.005 225.383 235.072 225.412 235.139 225.441C235.158 225.441 235.168 225.45 235.187 225.45C235.675 225.642 236.269 225.872 236.996 226.169C237.121 226.227 237.245 226.275 237.369 226.313C237.905 226.534 238.566 226.735 239.322 226.936C239.657 227.032 240.002 227.118 240.346 227.205C242.328 227.674 244.75 228.048 247.172 228.173C247.392 228.192 247.621 228.202 247.851 228.202C248.129 228.211 248.406 228.211 248.694 228.211C249.096 228.221 249.488 228.211 249.871 228.192C250.216 228.183 250.57 228.163 250.924 228.144C250.972 228.144 251.02 228.144 251.067 228.135C254.437 227.847 257.136 226.793 258.582 226.515C258.601 226.515 258.63 226.505 258.649 226.495C259.759 226.284 260.86 225.594 261.951 224.569C261.961 224.569 261.97 224.549 261.97 224.549C264.325 222.373 266.699 218.75 269.255 215.481C269.255 215.481 269.265 215.481 269.265 215.471C270.614 213.755 271.753 210.218 272.663 206.384C272.672 206.355 272.682 206.336 272.682 206.307C274.108 200.248 274.96 193.471 275.152 191.908C275.161 191.822 275.171 191.745 275.171 191.698C275.19 191.583 275.199 191.477 275.199 191.362L275.621 183.559C275.63 183.549 275.63 183.53 275.621 183.521C275.63 183.511 275.63 183.501 275.621 183.492L276.013 176.216L279.813 174.155C279.899 174.107 279.986 174.069 280.072 174.021L281.709 173.12L283.393 171.912L284.303 171.26L284.523 170.733C284.542 170.723 284.542 170.723 284.532 170.713L285.538 168.384C285.547 168.374 285.547 168.374 285.547 168.365L285.796 167.77L285.48 167.214L283.91 164.444C283.901 164.425 283.891 164.415 283.882 164.415L281.039 163.207C281.029 163.198 281.01 163.198 280.991 163.198L278.071 163.38L272.069 165.719L272.021 165.738V164.061C272.021 164.061 271.849 162.891 271.495 161.031C270.653 156.555 268.767 148.1 265.79 142.53C265.684 142.329 265.57 142.127 265.455 141.936C264.813 140.824 264.134 139.856 263.406 139.079C262.64 138.255 262.114 137.008 261.339 136.021C259.941 134.248 258.161 132.426 256.706 130.595L256.696 130.586C256.447 130.269 256.208 129.953 255.978 129.637C255.863 129.474 255.748 129.301 255.634 129.138C252.743 124.815 251.221 120.99 251.221 120.99L200.975 140.402L203.435 173.934C203.435 173.934 203.33 173.206 201.444 171.96C201.435 171.95 201.425 171.95 201.425 171.95C200.018 171.011 197.644 169.793 193.595 168.365C193.595 168.365 193.595 168.365 193.585 168.365C186.607 165.892 183.123 169.218 180.347 172.295C180.337 172.295 180.337 172.295 180.337 172.305C179.782 172.909 179.256 173.513 178.729 174.049C178.318 174.49 177.906 174.883 177.475 175.219C177.466 175.219 177.466 175.229 177.456 175.238C176.279 176.168 175.944 177.414 175.752 178.67C175.599 179.571 175.628 180.52 175.762 181.46C175.762 181.479 175.762 181.498 175.771 181.517C175.762 181.527 175.762 181.546 175.771 181.565V181.575C176.001 183.29 176.537 184.987 176.987 186.454V186.464C176.997 186.483 176.997 186.502 177.006 186.521C177.226 187.24 177.638 187.949 178.155 188.64C180.108 191.247 183.659 193.5 184.951 194.132C185.248 194.276 185.478 194.593 185.66 195.024C186.291 196.491 186.291 199.223 186.263 200.383L186.196 202.635L185.468 226.428L185.411 228.336L185.344 230.474C185.344 230.474 169.367 242.878 167.089 244.527C166.247 245.14 164.677 245.581 163.031 245.898H163.021C162.581 245.984 162.14 246.061 161.71 246.137H161.7C159.9 246.415 158.225 246.559 157.517 246.617C157.459 246.626 157.402 246.626 157.345 246.626C157.22 246.636 157.153 246.636 157.153 246.636L130.848 249.397C130.762 249.406 130.676 249.425 130.59 249.445C118.71 252.244 109.473 254.899 102.074 257.593C102.045 257.602 102.007 257.612 101.978 257.622C88.0024 262.721 80.603 267.946 74.2756 274.465C74.2661 274.484 74.2469 274.493 74.2373 274.512C69.9298 278.96 66.1008 284.032 61.0466 290.071C61.0275 290.09 61.0179 290.109 61.0083 290.128C57.2177 294.653 54.882 299.82 52.4411 303.961C52.3645 304.076 52.2975 304.201 52.2305 304.325C52.2018 304.354 52.1922 304.383 52.1826 304.412C48.2005 311.17 44.9076 317.075 41.7488 323.172C39.2121 328.09 36.9434 333.237 33.2581 338.462C33.2389 338.481 33.2389 338.491 33.2294 338.5C30.2045 342.804 28.3666 347.952 26.299 352.304C26.1458 352.621 25.9927 352.927 25.8491 353.244C24.2026 356.704 22.5562 360.136 20.9002 363.702C20.5556 364.459 20.2109 365.207 19.8663 365.945C19.761 366.175 19.6558 366.415 19.5409 366.655C18.172 369.655 16.784 372.771 15.3769 376.116C15.2908 376.327 15.195 376.538 15.1185 376.739C13.2327 381.302 11.6628 386.393 9.0783 391.885C9.05915 391.924 9.04001 391.962 9.03044 392.01C6.17787 398.069 4.63672 404.3 3.66034 410.09C3.60291 410.425 3.55505 410.741 3.50719 411.058C3.44975 411.413 3.40189 411.777 3.34446 412.17C3.29659 412.457 3.2583 412.764 3.21044 413.081C3.06686 414.02 2.92327 415.046 2.77969 416.158C1.97561 422.609 1.49699 428.361 1.25768 432.924C1.23854 433.355 1.21939 433.787 1.20025 434.218C1.16196 435.157 1.13324 436.03 1.1141 436.845C1.10452 437.305 1.10452 437.736 1.12367 438.139C1.1141 438.158 1.1141 438.187 1.12367 438.215C1.1811 440.075 1.41084 441.408 1.16196 442.596C1.16196 442.596 1.16196 442.596 1.15239 442.606C1.16196 442.615 1.16196 442.615 1.15239 442.625V442.635C0.788637 444.437 1.1141 448.003 1.72673 452.048C1.7363 452.077 1.7363 452.096 1.7363 452.125C3.019 460.561 5.5461 470.991 5.69926 471.633C5.72797 471.738 5.76626 471.853 5.80455 471.959C5.85241 472.083 5.90985 472.256 5.97685 472.467C6.96281 475.276 10.696 484.977 18.2486 493.911C22.9008 499.414 29.2568 504.178 36.752 507.811C36.7616 507.83 36.7616 507.83 36.7711 507.821C36.8094 507.849 36.8477 507.869 36.886 507.878C40.4086 509.584 44.3429 510.974 48.4494 512.106C69.9298 518.02 96.3782 516.86 96.3782 516.86C96.3782 516.86 99.001 516.755 103.289 516.602H103.347C121.027 515.988 166.898 514.531 175.417 515.777C178.882 516.285 190.57 515.499 204.756 514.215C204.804 514.215 204.852 514.205 204.9 514.205C211.649 513.582 218.962 512.863 226.218 512.106C249.411 509.69 272.012 506.996 273.878 506.776C273.917 506.776 273.965 506.766 274.003 506.757L275.113 505.807L278.042 503.296L285.662 485.629L289.998 484.593L310.933 479.599C311.775 479.398 312.646 479.187 313.518 478.985L342.79 472.62L361.58 469.083C361.58 469.083 366.098 469.16 365.275 469.581C365.103 469.658 364.596 469.994 363.926 470.482C363.916 470.492 363.906 470.502 363.897 470.502C362.825 471.288 361.322 472.448 360.02 473.636C358.335 475.17 357.043 476.8 356.765 477.212C356.746 477.241 356.737 477.26 356.727 477.279C356.411 477.835 355.875 482.743 355.846 483.04L355.866 483.098L358.058 489.712C360.02 490.153 361.753 490.441 363.294 490.594C363.342 490.594 363.39 490.604 363.437 490.604C365.897 490.853 367.869 490.767 369.535 490.479C372.34 490.019 374.302 488.878 376.475 487.067C376.513 487.038 376.552 487.009 376.59 486.98C377.47 486.213 378.399 485.379 379.423 484.392C379.452 484.382 379.462 484.363 379.471 484.354C386.066 478.161 386.354 467.837 386.354 467.837C386.679 467.798 387.11 467.779 387.521 467.693C387.531 467.693 387.541 467.693 387.541 467.693C387.876 467.616 388.182 467.482 388.412 467.252C389.168 466.466 389.733 465.248 390.144 464.041C390.154 464.031 390.154 464.021 390.154 464.012C390.795 462.114 391.063 460.235 391.082 460.072C391.111 460.081 391.149 460.101 391.207 460.129C396.108 462.919 402.818 465.095 410.419 466.658C410.486 466.677 410.553 466.686 410.62 466.706C420.939 468.824 432.904 469.792 444.276 469.553H444.286C459.161 469.246 471.26 462.43 476.42 459.008C477.952 457.982 478.87 457.273 479.071 457.11C479.091 457.091 479.1 457.081 479.119 457.071L562.523 364.766L568.228 351.221L587.182 306.204C587.306 305.907 587.44 305.61 587.555 305.313L589.929 298.583L593.815 287.578L583.496 282.795ZM102.878 393.726L102.323 401.376V401.405C102.284 401.826 102.256 402.258 102.227 402.689C102.227 402.718 102.217 402.737 102.217 402.766C100.963 409.428 102.131 420.366 102.935 426.271C102.945 426.309 102.945 426.357 102.954 426.396C103.136 428.255 103.299 429.645 103.395 430.374L100.14 430.738C98.733 430.633 97.479 430.489 96.3878 430.316C96.3878 430.316 94.3584 429.943 91.6495 429.502H91.6303L92.1664 424.68C92.6545 421.622 93.4491 418.353 94.4829 414.95C94.5403 414.758 94.5977 414.566 94.6647 414.375C95.7368 411.039 96.9525 407.76 97.8236 405.479C97.9385 405.182 98.0534 404.875 98.1778 404.568C98.398 404.012 98.5798 403.552 98.7234 403.197C98.8287 402.938 98.934 402.67 99.0393 402.411C99.1159 402.229 99.1925 402.056 99.269 401.874L99.2786 401.855L102.868 393.745L102.878 393.726ZM296.201 395.538L299.226 369.943L300.384 360.117L300.738 366.473V366.501C300.7 372.349 300.7 379.491 300.863 384.629C300.901 385.798 301.198 386.958 301.705 388.099V388.109C302.749 391.962 307.994 396.046 310.493 397.858C310.627 397.954 310.761 398.059 310.895 398.155C311.067 398.279 311.211 398.385 311.335 398.471C311.392 398.519 311.45 398.557 311.507 398.596C311.555 398.634 311.603 398.663 311.641 398.692C311.68 398.72 311.728 398.749 311.775 398.788C311.833 398.826 311.881 398.864 311.938 398.903C315.796 401.644 319.539 403.648 321.089 404.424C321.147 404.463 321.204 404.491 321.262 404.52C321.271 404.52 321.271 404.52 321.281 404.53L294.478 410.09L296.201 395.538Z" fill="#FBFBFB"/>
<path d="M582.577 272.893L593.184 244.517L604.785 207.63L614.645 173.848C614.645 173.848 616.942 162.623 600.487 161.703L598.975 162.757C598.975 162.757 593.806 155.558 582.262 156.603C581.333 156.689 570.009 154.657 566.352 155.932L570.679 135.187C570.679 135.187 574.364 115.19 567.712 114.577C561.059 113.963 556.321 120.981 556.321 120.981L548.433 144.773L514.25 244.997L516.586 258.686L554.875 275.653L582.587 274.148V272.893H582.577Z" fill="#FBFBFB"/>
<path d="M609.84 192.81C607.916 199.673 606.25 205.569 606.25 205.569L603.943 212.346L596.4 234.538L592.207 247.566L582.97 276.267L578.5 281.836L577.725 282.795H609.84H661.167H712.503H763.83H792.911C805.202 282.795 815.157 272.825 815.157 260.517V247.566V212.346V177.117V141.897V106.668V71.4487V36.2196V23.2687C815.157 10.9696 805.202 1 792.921 1H763.83H712.503H661.167H609.84H558.513H507.186H455.859H404.532H375.441C370.186 1 365.343 2.83096 361.533 5.89853C361.447 5.95605 361.37 6.01357 361.294 6.08067C357.847 8.92776 355.273 12.8006 354.028 17.2198C353.482 19.137 353.195 21.1693 353.195 23.2687V36.2196V71.4487V106.668V141.897V177.117V212.346V247.566V260.517C353.195 262.597 353.482 264.61 354.019 266.518C355.253 270.966 357.838 274.848 361.294 277.705C361.37 277.781 361.456 277.849 361.542 277.896C365.352 280.964 370.186 282.795 375.441 282.795H404.532H455.859H499.518H499.585" stroke="#0E171E" stroke-miterlimit="10"/>
<path d="M614.176 177.117C614.607 175.545 614.951 174.232 615.19 173.302C616.684 167.483 612.367 165.134 609.839 163.85C609.533 163.687 609.246 163.553 609.007 163.418C606.786 162.23 598.975 162.767 598.975 162.767C598.975 162.767 597.721 161.223 595.376 159.431C593.03 157.648 584.176 156.919 584.176 156.919C584.176 156.919 579.916 156.267 575.523 155.443C571.119 154.618 566.352 155.941 566.352 155.941L566.955 153.727L569.387 141.897L570.574 136.136C570.574 136.136 572.469 120.434 569.865 116.072C567.271 111.711 559.384 117.769 559.384 117.769L558.513 119.044L556.225 122.399L549.926 141.897L544.326 159.258L538.401 177.117L527.268 210.678L526.627 212.346L513.111 247.566L507.186 263" stroke="#0E171E" stroke-miterlimit="10"/>
<path d="M815.157 247.566H814.2H763.83H712.503H661.166H609.839H592.207" stroke="#0E171E" stroke-miterlimit="10"/>
<path d="M353.195 247.566H353.463H404.532H455.859H507.186H513.111" stroke="#0E171E" stroke-miterlimit="10"/>
<path d="M603.943 212.346H609.84H661.167H712.503H763.83H814.2H815.157" stroke="#0E171E" stroke-miterlimit="10"/>
<path d="M526.627 212.346H507.186H455.859H404.532H353.463H353.195" stroke="#0E171E" stroke-miterlimit="10"/>
<path d="M815.157 177.117H814.2H763.83H712.503H661.166H614.176" stroke="#0E171E" stroke-miterlimit="10"/>
<path d="M353.195 177.117H353.463H404.532H455.859H507.186H538.401" stroke="#0E171E" stroke-miterlimit="10"/>
<path d="M569.387 141.897H609.84H661.166H712.503H763.83H814.2H815.157" stroke="#0E171E" stroke-miterlimit="10"/>
<path d="M549.926 141.897H507.186H455.859H404.532H353.463H353.195" stroke="#0E171E" stroke-miterlimit="10"/>
<path d="M353.195 106.668H815.148" stroke="#0E171E" stroke-miterlimit="10"/>
<path d="M353.195 71.4487H815.148" stroke="#0E171E" stroke-miterlimit="10"/>
<path d="M353.195 36.2196H815.148" stroke="#0E171E" stroke-miterlimit="10"/>
<path d="M763.82 1V282.795" stroke="#0E171E" stroke-miterlimit="10"/>
<path d="M712.494 1V282.795" stroke="#0E171E" stroke-miterlimit="10"/>
<path d="M661.167 1V282.795" stroke="#0E171E" stroke-miterlimit="10"/>
<path d="M609.84 192.81V212.346V247.566V281.836V282.795" stroke="#0E171E" stroke-miterlimit="10"/>
<path d="M609.84 163.85V141.897V106.668V71.4487V36.2196V1.95862V1" stroke="#0E171E" stroke-miterlimit="10"/>
<path d="M558.513 1V1.95862V36.2196V71.4487V106.668V119.044" stroke="#0E171E" stroke-miterlimit="10"/>
<path d="M507.186 263V247.566V212.346V177.117V141.897V106.668V71.4487V36.2196V1.95862V1" stroke="#0E171E" stroke-miterlimit="10"/>
<path d="M455.85 1V282.795" stroke="#0E171E" stroke-miterlimit="10"/>
<path d="M404.522 1V282.795" stroke="#0E171E" stroke-miterlimit="10"/>
<path d="M254.619 128.716C254.619 128.716 272.347 142.731 271.61 165.978C271.61 165.978 281.872 159.613 285.05 165.978C288.228 172.343 275.516 175.765 275.516 175.765C275.516 175.765 278.694 224.712 253.519 227.895C228.343 231.078 216.856 208.809 216.856 208.071" stroke="#182128" stroke-miterlimit="10"/>
<path d="M249.622 192.905C249.622 192.905 253.537 202.453 259.884 202.204" stroke="#182128" stroke-width="2" stroke-miterlimit="10" stroke-linecap="round"/>
<path d="M251.221 153.986C251.221 153.986 254.514 162.067 253.777 165.738" stroke="#182128" stroke-width="2" stroke-miterlimit="10" stroke-linecap="round"/>
<path d="M203.426 175.286C203.426 175.286 199.894 163.783 183.822 170.388C167.75 176.992 178.749 196.328 190.235 195.839" stroke="#182128" stroke-miterlimit="10"/>
<path d="M180.452 180.664C180.452 180.664 184.3 172.832 189.584 173.57C194.868 174.308 196.582 178.143 193.404 182.092C190.226 186.051 193.423 189.234 195.002 189.723" stroke="#182128" stroke-miterlimit="10"/>
<path d="M233.32 224.578V237.941L214.176 282.479L185.344 228.211" stroke="#182128" stroke-miterlimit="10"/>
<path d="M214.185 282.488C214.185 282.488 201.961 418.564 199.683 426.07C199.683 426.07 131.49 432.272 103.462 430.949C102.275 430.892 101.164 430.824 100.14 430.738C98.733 430.633 97.479 430.489 96.3877 430.316C96.3877 430.316 94.3584 429.943 91.6494 429.502H91.6303C87.2366 428.802 81.0528 427.929 78.7842 428.236" stroke="#182128" stroke-miterlimit="10"/>
<path d="M128.159 348.815C128.159 348.815 115.141 368.419 104.649 390.016C104.649 390.026 104.649 390.035 104.64 390.045C104.037 391.262 103.453 392.499 102.878 393.726L102.869 393.745C101.605 396.449 100.399 399.161 99.2792 401.855L99.2696 401.874C99.193 402.056 99.1164 402.229 99.0399 402.411C98.9346 402.67 98.8293 402.938 98.724 403.197C98.5804 403.552 98.3985 404.012 98.1784 404.568C98.0539 404.875 97.939 405.181 97.8242 405.479C96.6276 408.508 95.5651 411.489 94.6653 414.375C94.5983 414.566 94.5409 414.758 94.4834 414.95C93.4496 418.353 92.6551 421.622 92.1669 424.68C91.8893 426.357 91.7074 427.968 91.6309 429.502" stroke="#182128" stroke-miterlimit="10"/>
<path d="M103.462 430.949C103.462 430.949 103.433 430.748 103.395 430.374C103.299 429.645 103.136 428.255 102.954 426.396C102.945 426.357 102.945 426.309 102.935 426.271C102.399 420.749 101.701 411.24 102.217 402.766C102.217 402.737 102.227 402.718 102.227 402.689C102.256 402.258 102.284 401.826 102.323 401.405V401.376C102.667 396.995 103.376 392.969 104.639 390.045C104.649 390.035 104.649 390.026 104.649 390.016C104.783 389.719 104.917 389.431 105.06 389.153" stroke="#182128" stroke-miterlimit="10"/>
<path d="M562.925 164.971C563.767 163.131 564.811 159.363 565.864 155.634C567.022 151.512 568.19 146.585 569.118 141.591C571.511 128.851 572.383 115.708 567.702 114.586C563.241 113.513 560.025 115.986 558.024 118.459C556.349 120.52 555.526 122.581 555.526 122.581C555.526 122.581 526.196 215.26 514.786 243.645C503.385 272.039 475.931 348.566 445.865 373.039C415.808 397.522 370.588 328.502 333.935 287.377C297.273 246.262 254.743 252.138 254.743 252.138L233.311 235.736" stroke="#182128" stroke-miterlimit="10"/>
<path d="M532.39 219.334C532.39 219.334 550.472 163.045 566.113 164.511C566.113 164.511 578.337 165.978 566.113 193.883L560.733 204.898C560.733 204.898 570.267 218.117 564.151 236.475" stroke="#182128" stroke-miterlimit="10"/>
<path d="M565.864 155.634C565.864 155.634 578.337 153.008 584.195 158.644C590.063 164.272 575.025 204.658 575.025 204.658C575.025 204.658 566.41 206.892 561.738 202.837" stroke="#182128" stroke-miterlimit="10"/>
<path d="M581.333 156.699C581.333 156.699 597.893 155.088 599.846 165.978C601.798 176.868 589.335 208.445 589.335 208.445C589.335 208.445 579.064 210.161 575.034 204.649" stroke="#182128" stroke-miterlimit="10"/>
<path d="M598.056 161.846C598.056 161.846 610.721 160.226 614.138 168.432C617.555 176.638 604.479 209.796 602.651 212.001C600.823 214.206 591.652 212.979 589.336 208.454" stroke="#182128" stroke-miterlimit="10"/>
<path d="M613.515 181.047C612.95 183.463 582.577 274.167 582.577 274.167" stroke="#182128" stroke-miterlimit="10"/>
<path d="M598.047 280.849C598.047 280.849 572.479 340.571 566.937 353.292" stroke="#182128" stroke-miterlimit="10"/>
<path d="M390.968 460.014C390.968 460.014 440.658 484.162 479.12 457.081" stroke="#182128" stroke-miterlimit="10"/>
<path d="M199.684 426.07C199.684 426.07 333.61 405.833 379.893 390.821C379.893 390.821 388.249 388.789 395.534 401.184C402.024 412.227 410.591 421.258 414.181 424.814C416.009 426.626 417.33 428.898 417.828 431.428C418.364 434.151 418.01 437.353 414.468 439.251C407.385 443.047 403.996 434.889 399.066 430.566C397.42 429.128 388.565 409.026 371.699 411.106C354.832 413.186 343.346 417.222 343.346 417.222" stroke="#182128" stroke-miterlimit="10"/>
<path d="M344.446 435.33C344.446 435.33 373.527 424.44 383.31 433.25C393.083 442.06 391.131 458.701 390.48 462.047" stroke="#182128" stroke-miterlimit="10"/>
<path d="M390.556 461.615C390.556 461.615 389.723 470.176 386.449 467.031C386.449 467.031 388.191 447.083 370.233 448.06C352.276 449.038 340.779 452.71 340.779 452.71" stroke="#182128" stroke-miterlimit="10"/>
<path d="M186.425 195.292L185.334 228.211L162.112 246.607C162.112 246.607 90.5009 244.306 61.4967 289.333C32.4924 334.359 6.43646 391.483 3.50731 411.058C0.578173 430.642 -10.8321 507.984 63.4686 514.502C137.769 521.03 251.173 512.547 277.238 506.018L293.205 503.085L289.95 484.814C289.95 484.814 360.987 466.543 366.529 469.15C354.516 474.7 355.569 481.957 355.569 481.957L357.522 489.54C357.522 489.54 375.24 495.78 383.31 478.401C391.379 461.021 381.366 451.492 381.366 451.492" stroke="#182128" stroke-miterlimit="10"/>
<path d="M321.836 404.808C321.836 404.808 321.836 404.808 321.827 404.808C321.779 404.779 321.587 404.683 321.281 404.53C321.272 404.52 321.272 404.52 321.262 404.52C321.205 404.491 321.147 404.463 321.09 404.424C319.539 403.648 315.796 401.644 311.938 398.903C311.881 398.864 311.833 398.826 311.776 398.787C311.728 398.749 311.68 398.72 311.642 398.692C311.603 398.663 311.556 398.634 311.508 398.596C311.45 398.557 311.393 398.519 311.335 398.471C311.211 398.385 311.067 398.279 310.895 398.155C310.761 398.059 310.627 397.953 310.493 397.858C306.817 395.068 303.275 391.684 301.706 388.109V388.099C301.198 386.958 300.902 385.798 300.863 384.629C300.701 379.491 300.701 372.349 300.739 366.501V366.473C300.787 360.625 300.863 356.072 300.863 356.072L300.385 360.107V360.117L299.226 369.943L296.202 395.538L294.479 410.09" stroke="#182128" stroke-miterlimit="10"/>
<path d="M257.807 129.991C260.592 130.825 263.579 130.691 266.24 129.512C271.658 127.116 279.21 122.332 279.679 114.222C280.416 101.492 270.145 84.1217 244.97 88.771C244.97 88.771 236.661 89.4324 232.019 88.0041C227.376 86.5757 178.739 82.655 168.717 127.691C168.717 127.691 166.515 157.974 178.863 174.241C178.863 174.241 193.595 162.93 202.45 175.593L209.016 173.877L210.146 157.053C210.146 157.053 238.863 147.505 245.831 136.251C250.139 129.263 254.849 129.1 257.807 129.991Z" fill="#FCB80A"/>
<path d="M536.458 351.221H749.893L657.673 512.106H446.842L536.458 351.221Z" fill="#182128"/>
<path d="M446.842 512.106H307.698L315.519 499.701H454.797L446.842 512.106Z" fill="#182128"/>
<path d="M505.664 265.971L590.791 298.919L599.904 278.002L513.542 245.936L505.664 265.971Z" fill="#182128"/>
<path d="M254.792 415.142C254.792 415.142 269.84 486.127 274.482 505.903L293.206 503.085C293.206 503.085 278.149 414.816 275.325 411.566L254.792 415.142Z" fill="#182128"/>
<path d="M161.519 246.281L184.358 287.09L206.346 266.882L185.823 226.131L161.519 246.281Z" fill="#182128"/>
<path d="M221.26 265.032L239.916 287.904L255.701 251.554L233.78 234.72L221.26 265.032Z" fill="#182128"/>
<path d="M390.049 445.386C390.049 445.386 396.74 421.258 381.922 412.793" stroke="#182128" stroke-miterlimit="10"/>
</svg>
