<svg width="53" height="49" viewBox="0 0 53 49" fill="none" xmlns="http://www.w3.org/2000/svg">
<g filter="url(#filter0_d_189_1299)">
<mask id="path-1-outside-1_189_1299" maskUnits="userSpaceOnUse" x="4" y="0" width="45" height="41" fill="black">
<rect fill="white" x="4" width="45" height="41"/>
<path fill-rule="evenodd" clip-rule="evenodd" d="M46.4623 36.1065C46.368 36.2747 46.242 36.4221 46.0917 36.5403C45.9414 36.6585 45.7697 36.745 45.5865 36.7951L39.0914 38.5731C38.7216 38.6739 38.3277 38.6207 37.9963 38.425C37.6648 38.2294 37.4229 37.9073 37.3235 37.5295L36.5271 34.4931L45.8129 31.9503L46.608 34.9872C46.6579 35.1742 46.6709 35.3694 46.6463 35.5616C46.6217 35.7537 46.5599 35.939 46.4646 36.1065H46.4623ZM30.0807 4.20119L36.5753 2.42268C36.9451 2.32357 37.3381 2.37758 37.6692 2.57298C38.0002 2.76838 38.2424 3.08938 38.3431 3.46625L39.1387 6.50271L29.8557 9.04498L29.0597 6.00998C28.9616 5.63203 29.014 5.22979 29.2054 4.89121C29.3967 4.55262 29.7114 4.30524 30.0807 4.20315V4.20119ZM45.4656 30.6245L39.4879 7.82903L30.203 10.3723L36.1792 33.1672L45.4646 30.6245H45.4656ZM25.4681 38.6234H18.7451C18.3626 38.6231 17.9957 38.4679 17.7249 38.1918C17.4541 37.9156 17.3014 37.5411 17.3003 37.1501V34.0047H26.9129V37.1501C26.9124 37.5415 26.76 37.9167 26.4891 38.1934C26.2183 38.47 25.8511 38.6256 25.4681 38.6258V38.6234ZM14.5119 38.6234H7.78839C7.40589 38.623 7.03911 38.4678 6.76833 38.1916C6.49755 37.9155 6.34481 37.541 6.34355 37.1501V34.0047H15.9567V37.1501C15.9561 37.5414 15.8036 37.9166 15.5328 38.1932C15.2619 38.4699 14.8948 38.6254 14.5119 38.6258V38.6234ZM7.78839 3.03896H14.5119C14.8948 3.03947 15.262 3.19516 15.5328 3.47188C15.8036 3.7486 15.9561 4.12378 15.9567 4.51519V7.65909H6.34355V4.51519C6.34418 4.12378 6.49662 3.7486 6.76746 3.47188C7.0383 3.19516 7.40543 3.03947 7.78839 3.03896ZM17.3003 9.03228H26.9129V32.6315H17.3003V9.03228ZM15.9567 32.6315H6.34355V9.03228H15.9567V32.6315ZM18.7451 3.03847H25.4681C25.8511 3.03886 26.2183 3.1945 26.4892 3.47125C26.76 3.748 26.9124 4.12326 26.9129 4.5147V7.6586H17.3003V4.51519C17.3008 4.12374 17.4532 3.74848 17.724 3.47174C17.9949 3.19499 18.3621 3.03934 18.7451 3.03896V3.03847ZM39.6427 3.11025C39.4503 2.38097 38.9827 1.75945 38.3426 1.38193C37.7025 1.00442 36.942 0.901726 36.228 1.09636L29.7333 2.87488C29.1181 3.04279 28.5781 3.42218 28.2044 3.94921C28.076 3.30468 27.7338 2.72521 27.2357 2.30872C26.7376 1.89224 26.1141 1.66426 25.4705 1.66332H18.7451C18.3427 1.66327 17.945 1.75254 17.5797 1.92496C17.2143 2.09738 16.8899 2.34885 16.629 2.66196C16.3677 2.349 16.0431 2.09765 15.6776 1.92525C15.3121 1.75285 14.9144 1.66348 14.5119 1.66332H7.78839C7.04884 1.66435 6.3399 1.96521 5.81714 2.49987C5.29438 3.03454 5.00051 3.75933 5 4.51519V37.1501C5.00089 37.9057 5.29501 38.6302 5.81785 39.1645C6.34068 39.6987 7.04953 39.9992 7.78887 40H14.5119C14.9143 39.9998 15.3119 39.9105 15.6774 39.7383C16.0428 39.5661 16.3675 39.315 16.629 39.0023C16.8901 39.3151 17.2145 39.5663 17.5799 39.7386C17.9452 39.9108 18.3428 40 18.7451 40H25.4681C26.2074 39.9991 26.9161 39.6985 27.4388 39.1643C27.9615 38.63 28.2556 37.9056 28.2565 37.1501V8.25388L36.0249 37.8826C36.1194 38.2442 36.2828 38.5832 36.5056 38.8802C36.7284 39.1772 37.0062 39.4265 37.3233 39.6137C37.6404 39.8009 37.9905 39.9224 38.3535 39.9712C38.7166 40.0201 39.0855 39.9954 39.4392 39.8984L45.9343 38.1219C46.6481 37.9254 47.2565 37.4475 47.6261 36.7931C47.9957 36.1388 48.0962 35.3613 47.9057 34.6313L39.6427 3.11025Z"/>
</mask>
<path fill-rule="evenodd" clip-rule="evenodd" d="M46.4623 36.1065C46.368 36.2747 46.242 36.4221 46.0917 36.5403C45.9414 36.6585 45.7697 36.745 45.5865 36.7951L39.0914 38.5731C38.7216 38.6739 38.3277 38.6207 37.9963 38.425C37.6648 38.2294 37.4229 37.9073 37.3235 37.5295L36.5271 34.4931L45.8129 31.9503L46.608 34.9872C46.6579 35.1742 46.6709 35.3694 46.6463 35.5616C46.6217 35.7537 46.5599 35.939 46.4646 36.1065H46.4623ZM30.0807 4.20119L36.5753 2.42268C36.9451 2.32357 37.3381 2.37758 37.6692 2.57298C38.0002 2.76838 38.2424 3.08938 38.3431 3.46625L39.1387 6.50271L29.8557 9.04498L29.0597 6.00998C28.9616 5.63203 29.014 5.22979 29.2054 4.89121C29.3967 4.55262 29.7114 4.30524 30.0807 4.20315V4.20119ZM45.4656 30.6245L39.4879 7.82903L30.203 10.3723L36.1792 33.1672L45.4646 30.6245H45.4656ZM25.4681 38.6234H18.7451C18.3626 38.6231 17.9957 38.4679 17.7249 38.1918C17.4541 37.9156 17.3014 37.5411 17.3003 37.1501V34.0047H26.9129V37.1501C26.9124 37.5415 26.76 37.9167 26.4891 38.1934C26.2183 38.47 25.8511 38.6256 25.4681 38.6258V38.6234ZM14.5119 38.6234H7.78839C7.40589 38.623 7.03911 38.4678 6.76833 38.1916C6.49755 37.9155 6.34481 37.541 6.34355 37.1501V34.0047H15.9567V37.1501C15.9561 37.5414 15.8036 37.9166 15.5328 38.1932C15.2619 38.4699 14.8948 38.6254 14.5119 38.6258V38.6234ZM7.78839 3.03896H14.5119C14.8948 3.03947 15.262 3.19516 15.5328 3.47188C15.8036 3.7486 15.9561 4.12378 15.9567 4.51519V7.65909H6.34355V4.51519C6.34418 4.12378 6.49662 3.7486 6.76746 3.47188C7.0383 3.19516 7.40543 3.03947 7.78839 3.03896ZM17.3003 9.03228H26.9129V32.6315H17.3003V9.03228ZM15.9567 32.6315H6.34355V9.03228H15.9567V32.6315ZM18.7451 3.03847H25.4681C25.8511 3.03886 26.2183 3.1945 26.4892 3.47125C26.76 3.748 26.9124 4.12326 26.9129 4.5147V7.6586H17.3003V4.51519C17.3008 4.12374 17.4532 3.74848 17.724 3.47174C17.9949 3.19499 18.3621 3.03934 18.7451 3.03896V3.03847ZM39.6427 3.11025C39.4503 2.38097 38.9827 1.75945 38.3426 1.38193C37.7025 1.00442 36.942 0.901726 36.228 1.09636L29.7333 2.87488C29.1181 3.04279 28.5781 3.42218 28.2044 3.94921C28.076 3.30468 27.7338 2.72521 27.2357 2.30872C26.7376 1.89224 26.1141 1.66426 25.4705 1.66332H18.7451C18.3427 1.66327 17.945 1.75254 17.5797 1.92496C17.2143 2.09738 16.8899 2.34885 16.629 2.66196C16.3677 2.349 16.0431 2.09765 15.6776 1.92525C15.3121 1.75285 14.9144 1.66348 14.5119 1.66332H7.78839C7.04884 1.66435 6.3399 1.96521 5.81714 2.49987C5.29438 3.03454 5.00051 3.75933 5 4.51519V37.1501C5.00089 37.9057 5.29501 38.6302 5.81785 39.1645C6.34068 39.6987 7.04953 39.9992 7.78887 40H14.5119C14.9143 39.9998 15.3119 39.9105 15.6774 39.7383C16.0428 39.5661 16.3675 39.315 16.629 39.0023C16.8901 39.3151 17.2145 39.5663 17.5799 39.7386C17.9452 39.9108 18.3428 40 18.7451 40H25.4681C26.2074 39.9991 26.9161 39.6985 27.4388 39.1643C27.9615 38.63 28.2556 37.9056 28.2565 37.1501V8.25388L36.0249 37.8826C36.1194 38.2442 36.2828 38.5832 36.5056 38.8802C36.7284 39.1772 37.0062 39.4265 37.3233 39.6137C37.6404 39.8009 37.9905 39.9224 38.3535 39.9712C38.7166 40.0201 39.0855 39.9954 39.4392 39.8984L45.9343 38.1219C46.6481 37.9254 47.2565 37.4475 47.6261 36.7931C47.9957 36.1388 48.0962 35.3613 47.9057 34.6313L39.6427 3.11025Z" fill="black"/>
<path fill-rule="evenodd" clip-rule="evenodd" d="M46.4623 36.1065C46.368 36.2747 46.242 36.4221 46.0917 36.5403C45.9414 36.6585 45.7697 36.745 45.5865 36.7951L39.0914 38.5731C38.7216 38.6739 38.3277 38.6207 37.9963 38.425C37.6648 38.2294 37.4229 37.9073 37.3235 37.5295L36.5271 34.4931L45.8129 31.9503L46.608 34.9872C46.6579 35.1742 46.6709 35.3694 46.6463 35.5616C46.6217 35.7537 46.5599 35.939 46.4646 36.1065H46.4623ZM30.0807 4.20119L36.5753 2.42268C36.9451 2.32357 37.3381 2.37758 37.6692 2.57298C38.0002 2.76838 38.2424 3.08938 38.3431 3.46625L39.1387 6.50271L29.8557 9.04498L29.0597 6.00998C28.9616 5.63203 29.014 5.22979 29.2054 4.89121C29.3967 4.55262 29.7114 4.30524 30.0807 4.20315V4.20119ZM45.4656 30.6245L39.4879 7.82903L30.203 10.3723L36.1792 33.1672L45.4646 30.6245H45.4656ZM25.4681 38.6234H18.7451C18.3626 38.6231 17.9957 38.4679 17.7249 38.1918C17.4541 37.9156 17.3014 37.5411 17.3003 37.1501V34.0047H26.9129V37.1501C26.9124 37.5415 26.76 37.9167 26.4891 38.1934C26.2183 38.47 25.8511 38.6256 25.4681 38.6258V38.6234ZM14.5119 38.6234H7.78839C7.40589 38.623 7.03911 38.4678 6.76833 38.1916C6.49755 37.9155 6.34481 37.541 6.34355 37.1501V34.0047H15.9567V37.1501C15.9561 37.5414 15.8036 37.9166 15.5328 38.1932C15.2619 38.4699 14.8948 38.6254 14.5119 38.6258V38.6234ZM7.78839 3.03896H14.5119C14.8948 3.03947 15.262 3.19516 15.5328 3.47188C15.8036 3.7486 15.9561 4.12378 15.9567 4.51519V7.65909H6.34355V4.51519C6.34418 4.12378 6.49662 3.7486 6.76746 3.47188C7.0383 3.19516 7.40543 3.03947 7.78839 3.03896ZM17.3003 9.03228H26.9129V32.6315H17.3003V9.03228ZM15.9567 32.6315H6.34355V9.03228H15.9567V32.6315ZM18.7451 3.03847H25.4681C25.8511 3.03886 26.2183 3.1945 26.4892 3.47125C26.76 3.748 26.9124 4.12326 26.9129 4.5147V7.6586H17.3003V4.51519C17.3008 4.12374 17.4532 3.74848 17.724 3.47174C17.9949 3.19499 18.3621 3.03934 18.7451 3.03896V3.03847ZM39.6427 3.11025C39.4503 2.38097 38.9827 1.75945 38.3426 1.38193C37.7025 1.00442 36.942 0.901726 36.228 1.09636L29.7333 2.87488C29.1181 3.04279 28.5781 3.42218 28.2044 3.94921C28.076 3.30468 27.7338 2.72521 27.2357 2.30872C26.7376 1.89224 26.1141 1.66426 25.4705 1.66332H18.7451C18.3427 1.66327 17.945 1.75254 17.5797 1.92496C17.2143 2.09738 16.8899 2.34885 16.629 2.66196C16.3677 2.349 16.0431 2.09765 15.6776 1.92525C15.3121 1.75285 14.9144 1.66348 14.5119 1.66332H7.78839C7.04884 1.66435 6.3399 1.96521 5.81714 2.49987C5.29438 3.03454 5.00051 3.75933 5 4.51519V37.1501C5.00089 37.9057 5.29501 38.6302 5.81785 39.1645C6.34068 39.6987 7.04953 39.9992 7.78887 40H14.5119C14.9143 39.9998 15.3119 39.9105 15.6774 39.7383C16.0428 39.5661 16.3675 39.315 16.629 39.0023C16.8901 39.3151 17.2145 39.5663 17.5799 39.7386C17.9452 39.9108 18.3428 40 18.7451 40H25.4681C26.2074 39.9991 26.9161 39.6985 27.4388 39.1643C27.9615 38.63 28.2556 37.9056 28.2565 37.1501V8.25388L36.0249 37.8826C36.1194 38.2442 36.2828 38.5832 36.5056 38.8802C36.7284 39.1772 37.0062 39.4265 37.3233 39.6137C37.6404 39.8009 37.9905 39.9224 38.3535 39.9712C38.7166 40.0201 39.0855 39.9954 39.4392 39.8984L45.9343 38.1219C46.6481 37.9254 47.2565 37.4475 47.6261 36.7931C47.9957 36.1388 48.0962 35.3613 47.9057 34.6313L39.6427 3.11025Z" stroke="black" mask="url(#path-1-outside-1_189_1299)"/>
</g>
<defs>
<filter id="filter0_d_189_1299" x="0.5" y="0.5" width="52" height="48" filterUnits="userSpaceOnUse" color-interpolation-filters="sRGB">
<feFlood flood-opacity="0" result="BackgroundImageFix"/>
<feColorMatrix in="SourceAlpha" type="matrix" values="0 0 0 0 0 0 0 0 0 0 0 0 0 0 0 0 0 0 127 0" result="hardAlpha"/>
<feOffset dy="4"/>
<feGaussianBlur stdDeviation="2"/>
<feComposite in2="hardAlpha" operator="out"/>
<feColorMatrix type="matrix" values="0 0 0 0 0 0 0 0 0 0 0 0 0 0 0 0 0 0 0.25 0"/>
<feBlend mode="normal" in2="BackgroundImageFix" result="effect1_dropShadow_189_1299"/>
<feBlend mode="normal" in="SourceGraphic" in2="effect1_dropShadow_189_1299" result="shape"/>
</filter>
</defs>
</svg>
