<svg width="80" height="74" viewBox="0 0 80 74" fill="none" xmlns="http://www.w3.org/2000/svg">
<path d="M0 10.6742V62.9263C0 68.8205 4.93851 73.6 10.8328 73.6H16.5677V0.000518799H10.8328C4.93851 0.000518799 0 4.77967 0 10.6742Z" fill="black"/>
<path d="M69.299 0.000488281H68.0245V36.3221C68.0245 36.9593 67.7059 37.4372 67.0687 37.7557C66.4315 38.0743 65.7942 37.9151 65.3163 37.5964L57.0324 30.7463L49.2265 37.5964C48.9079 37.9151 48.5893 37.9151 48.1113 37.9151C47.952 37.9151 47.6334 37.9151 47.4741 37.7557C46.8369 37.4371 46.5183 36.9592 46.5183 36.3221V0.000488281H19.9141V73.6H69.2992C75.1934 73.6 79.9729 68.8208 79.9729 62.9263V10.6742C79.9729 4.77995 75.1935 0.000488281 69.299 0.000488281Z" fill="black"/>
<path d="M58.1457 27.4007L64.8365 32.9764V0H49.8613V32.8174L56.0743 27.401C56.7115 26.9231 57.5085 26.9228 58.1457 27.4007Z" fill="black"/>
</svg>
