<svg width="38" height="36" viewBox="0 0 38 36" fill="none" xmlns="http://www.w3.org/2000/svg">
<path fill-rule="evenodd" clip-rule="evenodd" d="M0 5C0 2.23859 2.23853 0 5 0H33C35.7615 0 38 2.23859 38 5V31C38 33.7614 35.7615 36 33 36H5C2.23853 36 0 33.7614 0 31V5ZM5.92993 7.70715L4.47729 6.25446C4.0769 5.85406 3.42749 5.85406 3.0271 6.25446C2.62671 6.65485 2.62671 7.30682 3.0271 7.70715L4.47729 9.15985L3.0271 10.6125C2.62671 11.0129 2.62671 11.6649 3.0271 12.0652C3.42749 12.4656 4.0769 12.4656 4.47729 12.0652L5.92993 10.6125L7.38257 12.0652C7.78296 12.4656 8.43237 12.4656 8.83276 12.0652C9.23315 11.6648 9.23315 11.0129 8.83276 10.6125L7.38257 9.15985L8.83276 7.70715C9.23315 7.30676 9.23315 6.65485 8.83276 6.25446C8.43237 5.85406 7.78296 5.85406 7.38257 6.25446L5.92993 7.70715ZM26.9761 14.2928C26.9761 17.7141 21.8428 17.7141 21.8428 14.2928C21.8428 10.8715 26.9761 10.8715 26.9761 14.2928ZM27.6641 31.7462C28.0901 32.9422 29.2297 33.7995 30.5693 33.7995C32.2686 33.7995 33.6494 32.4186 33.6494 30.7195C33.6494 29.0204 32.2686 27.6396 30.5693 27.6396C29.2297 27.6396 28.0901 28.4968 27.6641 29.6929H9.61011C8.14209 29.6929 6.9563 28.5045 6.9563 27.039V16.7725L8.10864 17.9224C8.50903 18.3228 9.15845 18.3228 9.55884 17.9224C9.95923 17.5219 9.95923 16.87 9.55884 16.4697L6.65576 13.5668C6.25293 13.1664 5.60596 13.1664 5.20312 13.5668L2.30029 16.4697C1.8999 16.8701 1.8999 17.522 2.30029 17.9224C2.70068 18.3228 3.3501 18.3228 3.75049 17.9224L4.90283 16.7725V27.039C4.90283 29.6389 7.01001 31.7462 9.61011 31.7462H27.6641ZM30.5693 29.6929C31.1367 29.6929 31.5962 30.1549 31.5962 30.7195C31.5962 31.2842 31.1367 31.7462 30.5693 31.7462C30.0022 31.7462 29.5427 31.2842 29.5427 30.7195C29.5427 30.1549 30.0022 29.6929 30.5693 29.6929ZM15.7417 13.2665C16.2114 9.27026 19.3865 6.09534 23.3826 5.62823V4.02667C23.3826 3.46198 23.842 3 24.4092 3C24.9766 3 25.436 3.46198 25.436 4.02667V5.62823C29.4321 6.0954 32.6072 9.27026 33.0769 13.2665H34.6758C35.2432 13.2665 35.7024 13.7285 35.7024 14.2932C35.7024 14.8578 35.2432 15.3198 34.6758 15.3198H33.0769C32.6069 19.316 29.4321 22.4909 25.436 22.9581V24.5596C25.436 25.1243 24.9766 25.5863 24.4092 25.5863C23.842 25.5863 23.3826 25.1243 23.3826 24.5596V22.9581C19.3862 22.4909 16.2114 19.316 15.7417 15.3198H14.1428C13.5754 15.3198 13.116 14.8578 13.116 14.2932C13.116 13.7285 13.5754 13.2665 14.1428 13.2665H15.7417ZM31.0823 14.293C31.0823 10.61 28.0923 7.61987 24.4092 7.61987C20.7263 7.61987 17.7363 10.6098 17.7363 14.293C17.7363 17.9759 20.7263 20.966 24.4092 20.966C28.0923 20.966 31.0823 17.9761 31.0823 14.293Z" fill="white"/>
</svg>
