<svg width="42" height="41" viewBox="0 0 42 41" fill="none" xmlns="http://www.w3.org/2000/svg">
<path d="M41.1368 20.5527L38.3184 19.4439L37.647 15.6355L39.9171 13.6275C40.1913 13.3856 40.2578 12.9763 40.0723 12.6618L37.3527 7.95021C37.1672 7.62966 36.7841 7.48651 36.4394 7.60345L33.5645 8.56311L30.6028 6.07527L31.0524 3.07736C31.1089 2.71043 30.8972 2.35965 30.5524 2.23666L25.4376 0.373787C25.0909 0.244758 24.7038 0.383868 24.5142 0.694342L22.9296 3.28096H19.0587L17.4741 0.694342C17.2826 0.379831 16.8955 0.244758 16.5507 0.373787L11.4359 2.23666C11.0891 2.35964 10.8795 2.71246 10.9359 3.07736L11.3855 6.07527L8.42386 8.56311L5.54894 7.60345C5.19814 7.49054 4.81507 7.62965 4.63567 7.95021L1.91599 12.6618C1.73051 12.9823 1.79704 13.3835 2.07123 13.6275L4.34132 15.6355L3.66995 19.4439L0.851491 20.5527C0.510771 20.6878 0.309156 21.0426 0.371663 21.4096L1.31518 26.7725C1.37767 27.1334 1.68613 27.4016 2.05911 27.4116L5.08928 27.4943L7.02471 30.843L5.57917 33.5063C5.40378 33.8309 5.48039 34.2341 5.76062 34.4659L9.92986 37.9658C10.2141 38.2037 10.6214 38.2078 10.9097 37.9759L13.2846 36.0868L16.9176 37.4074L17.5225 40.3811C17.595 40.7419 17.9156 41 18.2805 41H23.7261C24.093 41 24.4115 40.7419 24.4841 40.3811L25.089 37.4074L28.722 36.0868L31.0969 37.9759C31.3852 38.2037 31.7945 38.1977 32.0767 37.9658L36.246 34.4659C36.5302 34.228 36.6028 33.8268 36.4274 33.5002L34.9819 30.837L36.9173 27.4882L39.9475 27.4056C40.3144 27.3955 40.6229 27.1274 40.6914 26.7665L41.6349 21.4035C41.6974 21.0426 41.4999 20.6858 41.1551 20.5467L41.1368 20.5527ZM39.2518 25.8749L36.4192 25.9515C36.1511 25.9576 35.9031 26.1067 35.768 26.3386L33.3992 30.4413C33.2641 30.6732 33.2601 30.9635 33.3891 31.1994L34.7419 33.6872L31.5424 36.3706L29.3227 34.6045C29.111 34.4352 28.8267 34.3868 28.5747 34.4815L24.1252 36.1024C23.8732 36.1952 23.6857 36.4129 23.6293 36.675L23.0607 39.4512H18.8793L18.3108 36.675C18.2584 36.4109 18.0688 36.1952 17.8148 36.1024L13.3653 34.4815C13.1133 34.3888 12.829 34.4352 12.6174 34.6045L10.3977 36.3706L7.19815 33.6872L8.55094 31.1953C8.67997 30.9574 8.67392 30.6732 8.54086 30.4414L6.17199 26.3386C6.03691 26.1068 5.79095 25.9576 5.52081 25.9516L2.6882 25.8749L1.96038 21.7621L4.59742 20.7238C4.84943 20.6251 5.03088 20.4033 5.07725 20.1412L5.89777 15.476C5.94414 15.2119 5.8514 14.9397 5.64979 14.7643L3.52886 12.8853L5.61955 9.26647L8.30898 10.1636C8.56099 10.2463 8.84528 10.1939 9.05291 10.0245L12.6818 6.98026C12.8875 6.81091 12.9923 6.54076 12.95 6.27261L12.5326 3.47025L16.46 2.04087L17.9418 4.45614C18.0809 4.68396 18.3349 4.8271 18.603 4.8271H23.3408C23.609 4.8271 23.863 4.68799 24.0021 4.45614L25.4839 2.04087L29.4113 3.47025L28.9939 6.27261C28.9536 6.54075 29.0564 6.80891 29.2621 6.98026L32.891 10.0245C33.0966 10.1939 33.3809 10.2523 33.6349 10.1636L36.3243 9.26647L38.415 12.8853L36.2941 14.7643C36.0925 14.9457 35.9998 15.2139 36.0461 15.476L36.8666 20.1412C36.913 20.4053 37.0945 20.6271 37.3465 20.7238L39.9835 21.7621L39.2557 25.8749L39.2518 25.8749Z" fill="black"/>
<path d="M20.982 11.8516C16.1252 11.8516 12.1719 15.8051 12.1719 20.6617C12.1719 25.5182 16.1254 29.4718 20.982 29.4718C25.8385 29.4718 29.7921 25.5182 29.7921 20.6617C29.7921 15.8051 25.8385 11.8516 20.982 11.8516ZM20.982 27.9239C16.976 27.9239 13.7202 24.668 13.7202 20.6622C13.7202 16.6564 16.9762 13.4004 20.982 13.4004C24.9878 13.4004 28.2437 16.6564 28.2437 20.6622C28.2437 24.668 24.9878 27.9239 20.982 27.9239Z" fill="black"/>
</svg>
