<svg width="57" height="65" viewBox="0 0 57 65" fill="none" xmlns="http://www.w3.org/2000/svg">
<path fill-rule="evenodd" clip-rule="evenodd" d="M53.4197 8.04585L56.3939 5.07173C57.2136 4.252 57.2136 2.92248 56.3939 2.10285C55.5741 1.2831 54.2394 1.2831 53.4197 2.10285L50.4456 5.07173L47.4715 2.10285C46.6517 1.2831 45.317 1.2831 44.4973 2.10285C43.6776 2.92259 43.6776 4.25209 44.4973 5.07173L47.4715 8.04585L44.4973 11.02C43.6776 11.8397 43.6776 13.1692 44.4973 13.9889C45.3171 14.8086 46.6518 14.8086 47.4715 13.9889L50.4456 11.02L53.4197 13.9889C54.2395 14.8086 55.5742 14.8086 56.3939 13.9889C57.2136 13.1691 57.2136 11.8396 56.3939 11.02L53.4197 8.04585Z" fill="#282D32"/>
<path fill-rule="evenodd" clip-rule="evenodd" d="M4.20385 52.5428C1.75516 53.4151 6.62277e-05 55.7481 6.61078e-05 58.4912C6.59558e-05 61.9697 2.82716 64.7968 6.30575 64.7968C9.78433 64.7968 12.6114 61.9697 12.6114 58.4912C12.6114 55.7481 10.8563 53.4151 8.40764 52.5428L8.40764 15.5804C8.40764 12.5747 10.8406 10.147 13.8411 10.147L34.86 10.147L32.5059 12.5063C31.6861 13.3261 31.6861 14.6556 32.5059 15.4752C33.3256 16.2949 34.6604 16.2949 35.48 15.4752L41.4232 9.53207C42.2429 8.70708 42.2429 7.38282 41.4232 6.55794L35.48 0.614798C34.6603 -0.204933 33.3255 -0.204933 32.5059 0.614798C31.6861 1.43454 31.6861 2.76404 32.5059 3.58368L34.86 5.94304L13.8411 5.94304C8.51808 5.94304 4.20385 10.2571 4.20385 15.5803L4.20385 52.5428ZM8.40764 58.4912C8.40764 59.6525 7.46178 60.5931 6.30575 60.5931C5.1497 60.5931 4.20385 59.6525 4.20385 58.4912C4.20385 57.3299 5.1497 56.3893 6.30575 56.3893C7.46178 56.3893 8.40764 57.3299 8.40764 58.4912Z" fill="#282D32"/>
</svg>
