<svg width="37" height="38" viewBox="0 0 37 38" fill="none" xmlns="http://www.w3.org/2000/svg">
<path d="M22.9669 21.979H13.7802C13.3574 21.979 13.0146 22.3218 13.0146 22.7446V36.5246C13.0146 36.9474 13.3574 37.2901 13.7802 37.2901H22.9669C23.3897 37.2901 23.7325 36.9474 23.7325 36.5246V22.7446C23.7325 22.3218 23.3897 21.979 22.9669 21.979Z" fill="#FBFBFB"/>
<path d="M34.8596 13.3933L22.6628 1.70558C20.2949 -0.562003 16.5804 -0.569659 14.2049 1.6895L1.90394 13.3865C0.688236 14.5424 0 16.1471 0 17.8252V31.1658C0 34.548 2.74223 37.2902 6.12446 37.2902H9.18669C9.60927 37.2902 9.95224 36.9472 9.95224 36.5247V22.7446C9.95224 20.6309 11.6663 18.9168 13.78 18.9168H22.9667C25.0804 18.9168 26.7945 20.6309 26.7945 22.7446V36.5247C26.7945 36.9472 27.1375 37.2902 27.5601 37.2902H30.6223C34.0045 37.2902 36.7467 34.548 36.7467 31.1658V17.816C36.7467 16.1463 36.0654 14.5486 34.8596 13.3933Z" fill="#FBFBFB"/>
</svg>
