<svg width="39" height="45" viewBox="0 0 39 45" fill="none" xmlns="http://www.w3.org/2000/svg">
<mask id="path-1-outside-1_189_1343" maskUnits="userSpaceOnUse" x="0" y="0" width="39" height="45" fill="black">
<rect fill="white" width="39" height="45"/>
<path fill-rule="evenodd" clip-rule="evenodd" d="M19.5883 1C24.1171 1 28.217 2.79091 31.1845 5.6867C34.1525 8.58249 35.9881 12.5827 35.9881 17.0007C35.9881 21.283 34.264 25.1725 31.4559 28.0442C31.521 28.0813 31.5773 28.1347 31.6177 28.2026L37.8779 38.7815C37.9805 38.9548 38.0176 39.1488 37.9924 39.3361C37.9672 39.5234 37.8804 39.701 37.7363 39.8426C37.5912 39.9846 37.4087 40.0698 37.2157 40.0948C37.0243 40.1199 36.8259 40.0847 36.6493 39.9856L31.0513 36.85C31.0468 36.8476 31.0503 36.8462 31.0478 36.8462C31.0453 36.8462 31.0498 36.8471 31.0468 36.8491C31.0434 36.851 31.0444 36.8466 31.0434 36.8486C31.0434 36.8486 31.0439 36.849 31.0439 36.8524L31.0419 43.1197C31.0419 43.3209 30.9743 43.5072 30.8559 43.6569C30.7379 43.8066 30.5707 43.9179 30.3713 43.9699C30.173 44.0214 29.9716 44.0055 29.7935 43.9328C29.6139 43.8596 29.4595 43.7306 29.3573 43.5563L22.9669 32.6616C21.8764 32.8845 20.7464 33.002 19.5883 33.002C18.3691 33.002 17.1809 32.872 16.0376 32.626L9.64219 43.552C9.53956 43.7272 9.38561 43.8572 9.20649 43.9299C9.02886 44.0026 8.82754 44.0185 8.62868 43.967C8.42934 43.9154 8.26206 43.8038 8.14413 43.654C8.02571 43.5043 7.95811 43.3175 7.95811 43.1163L7.95663 36.8519C7.95663 36.8486 7.95712 36.8481 7.95712 36.8481C7.95564 36.8457 7.95712 36.8505 7.95367 36.8486L7.95268 36.8476L2.35074 39.9856C2.17409 40.0842 1.97573 40.1199 1.78427 40.0948C1.59184 40.0698 1.40877 39.9846 1.2637 39.8426C1.11913 39.7015 1.03278 39.5234 1.00761 39.3361C0.982446 39.1488 1.01945 38.9548 1.12209 38.7815L7.38227 28.2026C7.4479 28.0924 7.55497 28.0201 7.6734 27.9946C4.89389 25.1277 3.18908 21.2585 3.18908 17.0007C3.18908 12.5822 5.02465 8.58201 7.99265 5.6867C10.9597 2.79091 15.0601 1 19.5883 1ZM20.5214 7.86613C20.4558 7.6673 20.33 7.50169 20.1661 7.38518C20.0008 7.26771 19.801 7.20127 19.5888 7.20127C19.3761 7.20127 19.1768 7.26771 19.0115 7.38518C18.8477 7.50169 18.7219 7.66681 18.6562 7.86613L16.6208 14.0188C16.6149 14.0361 16.6045 14.0501 16.5917 14.0592C16.5779 14.0688 16.5601 14.0746 16.5404 14.0746L9.91408 14.0621C9.69894 14.0616 9.4991 14.1266 9.33627 14.2417C9.17245 14.3572 9.04662 14.5228 8.9805 14.7221C8.91438 14.9215 8.91636 15.127 8.97902 15.3148C9.04169 15.503 9.16406 15.6706 9.33775 15.7928L14.7063 19.5831C14.7226 19.5947 14.7339 19.6086 14.7384 19.6231C14.7433 19.6375 14.7428 19.6553 14.7364 19.6741L12.6768 25.8191C12.6102 26.0169 12.6127 26.222 12.6748 26.4098C12.7375 26.599 12.8599 26.7675 13.0331 26.8902C13.2053 27.0125 13.4066 27.0737 13.6094 27.0732C13.8117 27.0732 14.0125 27.0111 14.1857 26.8878L19.5395 23.0778C19.5538 23.0672 19.5715 23.0619 19.5893 23.0619C19.6071 23.0619 19.6243 23.0672 19.6391 23.0778L24.9924 26.8878C25.1656 27.0111 25.3664 27.0732 25.5687 27.0732C25.772 27.0732 25.9729 27.0125 26.1451 26.8902C26.3183 26.7675 26.4406 26.599 26.5033 26.4098C26.5655 26.2225 26.5674 26.0174 26.5013 25.8191L24.4412 19.6741C24.4348 19.6553 24.4343 19.6375 24.4393 19.6231C24.4442 19.6086 24.4551 19.5947 24.4713 19.5831L29.8399 15.7928C30.0136 15.6701 30.1359 15.5025 30.1986 15.3148C30.2613 15.1275 30.2633 14.9215 30.1971 14.7221C30.1305 14.5228 30.0052 14.3577 29.8414 14.2417C29.6785 14.1266 29.4792 14.0616 29.2641 14.0621L22.6372 14.0751C22.618 14.0751 22.6002 14.0693 22.5864 14.0597C22.5736 14.0505 22.5632 14.0366 22.5573 14.0193L20.5214 7.86613ZM21.7032 14.2864L19.6673 8.1338C19.6609 8.11502 19.651 8.10058 19.6387 8.09192C19.6278 8.08421 19.61 8.0794 19.5883 8.0794C19.5661 8.0794 19.5488 8.08373 19.538 8.09192C19.5257 8.10058 19.5158 8.11502 19.5094 8.1338L17.474 14.2864C17.4074 14.4872 17.282 14.6533 17.1182 14.7693C16.9554 14.8849 16.7555 14.9499 16.5399 14.9494L9.91358 14.9369C9.89434 14.9369 9.87658 14.9422 9.86276 14.9518C9.84993 14.9609 9.83957 14.9754 9.83365 14.9932C9.82773 15.0115 9.82723 15.0293 9.83217 15.0437C9.8371 15.0582 9.84796 15.0717 9.86424 15.0832L15.2328 18.8735C15.4065 18.9963 15.5289 19.1643 15.5915 19.352C15.6542 19.5403 15.6562 19.7458 15.5895 19.9452L13.53 26.0901C13.5235 26.1098 13.523 26.1277 13.528 26.1426C13.5324 26.1556 13.5433 26.1691 13.5596 26.1806C13.5768 26.1931 13.5941 26.1989 13.6089 26.1989C13.6247 26.1989 13.642 26.1931 13.6582 26.1816L19.0115 22.3711C19.1867 22.2464 19.388 22.1843 19.5883 22.1843C19.7892 22.1843 19.99 22.2464 20.1651 22.3711L25.5189 26.1816C25.5352 26.1931 25.5525 26.1989 25.5682 26.1989C25.583 26.1989 25.6003 26.1926 25.6176 26.1806C25.6339 26.1691 25.6447 26.1556 25.6492 26.1426C25.6541 26.1277 25.6536 26.1094 25.6472 26.0901L23.5871 19.9452C23.5205 19.7463 23.5225 19.5403 23.5851 19.352C23.6478 19.1638 23.7702 18.9963 23.9444 18.8735L29.3129 15.0832C29.3292 15.0717 29.34 15.0577 29.345 15.0437C29.3499 15.0293 29.3499 15.0115 29.3435 14.9932C29.3376 14.9749 29.3272 14.9609 29.3144 14.9518C29.3011 14.9422 29.2833 14.9364 29.2641 14.9369L22.6372 14.9494C22.4216 14.9499 22.2218 14.8849 22.0594 14.7693C21.8956 14.6533 21.7698 14.4872 21.7032 14.2864ZM15.1346 32.404C12.4957 31.679 10.1267 30.3262 8.20729 28.5208C8.19742 28.5622 8.18114 28.6027 8.15844 28.6417L1.89826 39.2206C1.89678 39.2225 1.89628 39.223 1.89628 39.223C1.89628 39.223 1.89727 39.2235 1.89974 39.2254C1.90122 39.2268 1.89924 39.2273 1.90023 39.2273L1.90467 39.2244L7.50316 36.0889C7.51797 36.0807 7.53277 36.0735 7.54807 36.0667C7.67685 36.0032 7.81403 35.9714 7.95219 35.9719C8.1091 35.9724 8.26256 36.0118 8.40319 36.0913C8.54332 36.1702 8.65484 36.281 8.73329 36.4134C8.81076 36.5443 8.85221 36.6935 8.85221 36.8524L8.85369 43.1197L8.85665 43.1206C8.85912 43.1216 8.86159 43.1211 8.86159 43.1211V43.1201L15.1346 32.404ZM30.8411 28.6407C28.9048 30.4234 26.5235 31.7512 23.8772 32.4488L30.1379 43.1216C30.1394 43.124 30.1369 43.124 30.1379 43.124C30.1379 43.124 30.1404 43.124 30.1429 43.1235L30.1458 43.1225L30.1453 43.1201L30.1468 36.8529C30.1468 36.694 30.1883 36.5448 30.2657 36.4138C30.3442 36.2814 30.4562 36.1707 30.5958 36.0918C30.7365 36.0123 30.8899 35.9729 31.0468 35.9724C31.2032 35.9719 31.3567 36.0114 31.4963 36.0894L37.0943 39.2249L37.0988 39.2278C37.0998 39.2278 37.0978 39.2273 37.0993 39.2259C37.1017 39.2235 37.1027 39.2235 37.1027 39.2235C37.1027 39.2235 37.1022 39.223 37.1008 39.221L30.8416 28.6412L30.8411 28.6407ZM30.549 6.30678C27.7438 3.57034 23.8689 1.87764 19.5883 1.87764C15.3078 1.87764 11.4329 3.57034 8.6277 6.30726C5.82253 9.04418 4.08762 12.8248 4.08762 17.0012C4.08762 21.1776 5.82253 24.9583 8.6277 27.6952C11.4329 30.4321 15.3078 32.1248 19.5883 32.1248C23.8684 32.1248 27.7438 30.4321 30.549 27.6952C33.3541 24.9583 35.089 21.1776 35.089 17.0012C35.089 12.8248 33.3541 9.0437 30.549 6.30678Z"/>
</mask>
<path fill-rule="evenodd" clip-rule="evenodd" d="M19.5883 1C24.1171 1 28.217 2.79091 31.1845 5.6867C34.1525 8.58249 35.9881 12.5827 35.9881 17.0007C35.9881 21.283 34.264 25.1725 31.4559 28.0442C31.521 28.0813 31.5773 28.1347 31.6177 28.2026L37.8779 38.7815C37.9805 38.9548 38.0176 39.1488 37.9924 39.3361C37.9672 39.5234 37.8804 39.701 37.7363 39.8426C37.5912 39.9846 37.4087 40.0698 37.2157 40.0948C37.0243 40.1199 36.8259 40.0847 36.6493 39.9856L31.0513 36.85C31.0468 36.8476 31.0503 36.8462 31.0478 36.8462C31.0453 36.8462 31.0498 36.8471 31.0468 36.8491C31.0434 36.851 31.0444 36.8466 31.0434 36.8486C31.0434 36.8486 31.0439 36.849 31.0439 36.8524L31.0419 43.1197C31.0419 43.3209 30.9743 43.5072 30.8559 43.6569C30.7379 43.8066 30.5707 43.9179 30.3713 43.9699C30.173 44.0214 29.9716 44.0055 29.7935 43.9328C29.6139 43.8596 29.4595 43.7306 29.3573 43.5563L22.9669 32.6616C21.8764 32.8845 20.7464 33.002 19.5883 33.002C18.3691 33.002 17.1809 32.872 16.0376 32.626L9.64219 43.552C9.53956 43.7272 9.38561 43.8572 9.20649 43.9299C9.02886 44.0026 8.82754 44.0185 8.62868 43.967C8.42934 43.9154 8.26206 43.8038 8.14413 43.654C8.02571 43.5043 7.95811 43.3175 7.95811 43.1163L7.95663 36.8519C7.95663 36.8486 7.95712 36.8481 7.95712 36.8481C7.95564 36.8457 7.95712 36.8505 7.95367 36.8486L7.95268 36.8476L2.35074 39.9856C2.17409 40.0842 1.97573 40.1199 1.78427 40.0948C1.59184 40.0698 1.40877 39.9846 1.2637 39.8426C1.11913 39.7015 1.03278 39.5234 1.00761 39.3361C0.982446 39.1488 1.01945 38.9548 1.12209 38.7815L7.38227 28.2026C7.4479 28.0924 7.55497 28.0201 7.6734 27.9946C4.89389 25.1277 3.18908 21.2585 3.18908 17.0007C3.18908 12.5822 5.02465 8.58201 7.99265 5.6867C10.9597 2.79091 15.0601 1 19.5883 1ZM20.5214 7.86613C20.4558 7.6673 20.33 7.50169 20.1661 7.38518C20.0008 7.26771 19.801 7.20127 19.5888 7.20127C19.3761 7.20127 19.1768 7.26771 19.0115 7.38518C18.8477 7.50169 18.7219 7.66681 18.6562 7.86613L16.6208 14.0188C16.6149 14.0361 16.6045 14.0501 16.5917 14.0592C16.5779 14.0688 16.5601 14.0746 16.5404 14.0746L9.91408 14.0621C9.69894 14.0616 9.4991 14.1266 9.33627 14.2417C9.17245 14.3572 9.04662 14.5228 8.9805 14.7221C8.91438 14.9215 8.91636 15.127 8.97902 15.3148C9.04169 15.503 9.16406 15.6706 9.33775 15.7928L14.7063 19.5831C14.7226 19.5947 14.7339 19.6086 14.7384 19.6231C14.7433 19.6375 14.7428 19.6553 14.7364 19.6741L12.6768 25.8191C12.6102 26.0169 12.6127 26.222 12.6748 26.4098C12.7375 26.599 12.8599 26.7675 13.0331 26.8902C13.2053 27.0125 13.4066 27.0737 13.6094 27.0732C13.8117 27.0732 14.0125 27.0111 14.1857 26.8878L19.5395 23.0778C19.5538 23.0672 19.5715 23.0619 19.5893 23.0619C19.6071 23.0619 19.6243 23.0672 19.6391 23.0778L24.9924 26.8878C25.1656 27.0111 25.3664 27.0732 25.5687 27.0732C25.772 27.0732 25.9729 27.0125 26.1451 26.8902C26.3183 26.7675 26.4406 26.599 26.5033 26.4098C26.5655 26.2225 26.5674 26.0174 26.5013 25.8191L24.4412 19.6741C24.4348 19.6553 24.4343 19.6375 24.4393 19.6231C24.4442 19.6086 24.4551 19.5947 24.4713 19.5831L29.8399 15.7928C30.0136 15.6701 30.1359 15.5025 30.1986 15.3148C30.2613 15.1275 30.2633 14.9215 30.1971 14.7221C30.1305 14.5228 30.0052 14.3577 29.8414 14.2417C29.6785 14.1266 29.4792 14.0616 29.2641 14.0621L22.6372 14.0751C22.618 14.0751 22.6002 14.0693 22.5864 14.0597C22.5736 14.0505 22.5632 14.0366 22.5573 14.0193L20.5214 7.86613ZM21.7032 14.2864L19.6673 8.1338C19.6609 8.11502 19.651 8.10058 19.6387 8.09192C19.6278 8.08421 19.61 8.0794 19.5883 8.0794C19.5661 8.0794 19.5488 8.08373 19.538 8.09192C19.5257 8.10058 19.5158 8.11502 19.5094 8.1338L17.474 14.2864C17.4074 14.4872 17.282 14.6533 17.1182 14.7693C16.9554 14.8849 16.7555 14.9499 16.5399 14.9494L9.91358 14.9369C9.89434 14.9369 9.87658 14.9422 9.86276 14.9518C9.84993 14.9609 9.83957 14.9754 9.83365 14.9932C9.82773 15.0115 9.82723 15.0293 9.83217 15.0437C9.8371 15.0582 9.84796 15.0717 9.86424 15.0832L15.2328 18.8735C15.4065 18.9963 15.5289 19.1643 15.5915 19.352C15.6542 19.5403 15.6562 19.7458 15.5895 19.9452L13.53 26.0901C13.5235 26.1098 13.523 26.1277 13.528 26.1426C13.5324 26.1556 13.5433 26.1691 13.5596 26.1806C13.5768 26.1931 13.5941 26.1989 13.6089 26.1989C13.6247 26.1989 13.642 26.1931 13.6582 26.1816L19.0115 22.3711C19.1867 22.2464 19.388 22.1843 19.5883 22.1843C19.7892 22.1843 19.99 22.2464 20.1651 22.3711L25.5189 26.1816C25.5352 26.1931 25.5525 26.1989 25.5682 26.1989C25.583 26.1989 25.6003 26.1926 25.6176 26.1806C25.6339 26.1691 25.6447 26.1556 25.6492 26.1426C25.6541 26.1277 25.6536 26.1094 25.6472 26.0901L23.5871 19.9452C23.5205 19.7463 23.5225 19.5403 23.5851 19.352C23.6478 19.1638 23.7702 18.9963 23.9444 18.8735L29.3129 15.0832C29.3292 15.0717 29.34 15.0577 29.345 15.0437C29.3499 15.0293 29.3499 15.0115 29.3435 14.9932C29.3376 14.9749 29.3272 14.9609 29.3144 14.9518C29.3011 14.9422 29.2833 14.9364 29.2641 14.9369L22.6372 14.9494C22.4216 14.9499 22.2218 14.8849 22.0594 14.7693C21.8956 14.6533 21.7698 14.4872 21.7032 14.2864ZM15.1346 32.404C12.4957 31.679 10.1267 30.3262 8.20729 28.5208C8.19742 28.5622 8.18114 28.6027 8.15844 28.6417L1.89826 39.2206C1.89678 39.2225 1.89628 39.223 1.89628 39.223C1.89628 39.223 1.89727 39.2235 1.89974 39.2254C1.90122 39.2268 1.89924 39.2273 1.90023 39.2273L1.90467 39.2244L7.50316 36.0889C7.51797 36.0807 7.53277 36.0735 7.54807 36.0667C7.67685 36.0032 7.81403 35.9714 7.95219 35.9719C8.1091 35.9724 8.26256 36.0118 8.40319 36.0913C8.54332 36.1702 8.65484 36.281 8.73329 36.4134C8.81076 36.5443 8.85221 36.6935 8.85221 36.8524L8.85369 43.1197L8.85665 43.1206C8.85912 43.1216 8.86159 43.1211 8.86159 43.1211V43.1201L15.1346 32.404ZM30.8411 28.6407C28.9048 30.4234 26.5235 31.7512 23.8772 32.4488L30.1379 43.1216C30.1394 43.124 30.1369 43.124 30.1379 43.124C30.1379 43.124 30.1404 43.124 30.1429 43.1235L30.1458 43.1225L30.1453 43.1201L30.1468 36.8529C30.1468 36.694 30.1883 36.5448 30.2657 36.4138C30.3442 36.2814 30.4562 36.1707 30.5958 36.0918C30.7365 36.0123 30.8899 35.9729 31.0468 35.9724C31.2032 35.9719 31.3567 36.0114 31.4963 36.0894L37.0943 39.2249L37.0988 39.2278C37.0998 39.2278 37.0978 39.2273 37.0993 39.2259C37.1017 39.2235 37.1027 39.2235 37.1027 39.2235C37.1027 39.2235 37.1022 39.223 37.1008 39.221L30.8416 28.6412L30.8411 28.6407ZM30.549 6.30678C27.7438 3.57034 23.8689 1.87764 19.5883 1.87764C15.3078 1.87764 11.4329 3.57034 8.6277 6.30726C5.82253 9.04418 4.08762 12.8248 4.08762 17.0012C4.08762 21.1776 5.82253 24.9583 8.6277 27.6952C11.4329 30.4321 15.3078 32.1248 19.5883 32.1248C23.8684 32.1248 27.7438 30.4321 30.549 27.6952C33.3541 24.9583 35.089 21.1776 35.089 17.0012C35.089 12.8248 33.3541 9.0437 30.549 6.30678Z" fill="black"/>
<path fill-rule="evenodd" clip-rule="evenodd" d="M19.5883 1C24.1171 1 28.217 2.79091 31.1845 5.6867C34.1525 8.58249 35.9881 12.5827 35.9881 17.0007C35.9881 21.283 34.264 25.1725 31.4559 28.0442C31.521 28.0813 31.5773 28.1347 31.6177 28.2026L37.8779 38.7815C37.9805 38.9548 38.0176 39.1488 37.9924 39.3361C37.9672 39.5234 37.8804 39.701 37.7363 39.8426C37.5912 39.9846 37.4087 40.0698 37.2157 40.0948C37.0243 40.1199 36.8259 40.0847 36.6493 39.9856L31.0513 36.85C31.0468 36.8476 31.0503 36.8462 31.0478 36.8462C31.0453 36.8462 31.0498 36.8471 31.0468 36.8491C31.0434 36.851 31.0444 36.8466 31.0434 36.8486C31.0434 36.8486 31.0439 36.849 31.0439 36.8524L31.0419 43.1197C31.0419 43.3209 30.9743 43.5072 30.8559 43.6569C30.7379 43.8066 30.5707 43.9179 30.3713 43.9699C30.173 44.0214 29.9716 44.0055 29.7935 43.9328C29.6139 43.8596 29.4595 43.7306 29.3573 43.5563L22.9669 32.6616C21.8764 32.8845 20.7464 33.002 19.5883 33.002C18.3691 33.002 17.1809 32.872 16.0376 32.626L9.64219 43.552C9.53956 43.7272 9.38561 43.8572 9.20649 43.9299C9.02886 44.0026 8.82754 44.0185 8.62868 43.967C8.42934 43.9154 8.26206 43.8038 8.14413 43.654C8.02571 43.5043 7.95811 43.3175 7.95811 43.1163L7.95663 36.8519C7.95663 36.8486 7.95712 36.8481 7.95712 36.8481C7.95564 36.8457 7.95712 36.8505 7.95367 36.8486L7.95268 36.8476L2.35074 39.9856C2.17409 40.0842 1.97573 40.1199 1.78427 40.0948C1.59184 40.0698 1.40877 39.9846 1.2637 39.8426C1.11913 39.7015 1.03278 39.5234 1.00761 39.3361C0.982446 39.1488 1.01945 38.9548 1.12209 38.7815L7.38227 28.2026C7.4479 28.0924 7.55497 28.0201 7.6734 27.9946C4.89389 25.1277 3.18908 21.2585 3.18908 17.0007C3.18908 12.5822 5.02465 8.58201 7.99265 5.6867C10.9597 2.79091 15.0601 1 19.5883 1ZM20.5214 7.86613C20.4558 7.6673 20.33 7.50169 20.1661 7.38518C20.0008 7.26771 19.801 7.20127 19.5888 7.20127C19.3761 7.20127 19.1768 7.26771 19.0115 7.38518C18.8477 7.50169 18.7219 7.66681 18.6562 7.86613L16.6208 14.0188C16.6149 14.0361 16.6045 14.0501 16.5917 14.0592C16.5779 14.0688 16.5601 14.0746 16.5404 14.0746L9.91408 14.0621C9.69894 14.0616 9.4991 14.1266 9.33627 14.2417C9.17245 14.3572 9.04662 14.5228 8.9805 14.7221C8.91438 14.9215 8.91636 15.127 8.97902 15.3148C9.04169 15.503 9.16406 15.6706 9.33775 15.7928L14.7063 19.5831C14.7226 19.5947 14.7339 19.6086 14.7384 19.6231C14.7433 19.6375 14.7428 19.6553 14.7364 19.6741L12.6768 25.8191C12.6102 26.0169 12.6127 26.222 12.6748 26.4098C12.7375 26.599 12.8599 26.7675 13.0331 26.8902C13.2053 27.0125 13.4066 27.0737 13.6094 27.0732C13.8117 27.0732 14.0125 27.0111 14.1857 26.8878L19.5395 23.0778C19.5538 23.0672 19.5715 23.0619 19.5893 23.0619C19.6071 23.0619 19.6243 23.0672 19.6391 23.0778L24.9924 26.8878C25.1656 27.0111 25.3664 27.0732 25.5687 27.0732C25.772 27.0732 25.9729 27.0125 26.1451 26.8902C26.3183 26.7675 26.4406 26.599 26.5033 26.4098C26.5655 26.2225 26.5674 26.0174 26.5013 25.8191L24.4412 19.6741C24.4348 19.6553 24.4343 19.6375 24.4393 19.6231C24.4442 19.6086 24.4551 19.5947 24.4713 19.5831L29.8399 15.7928C30.0136 15.6701 30.1359 15.5025 30.1986 15.3148C30.2613 15.1275 30.2633 14.9215 30.1971 14.7221C30.1305 14.5228 30.0052 14.3577 29.8414 14.2417C29.6785 14.1266 29.4792 14.0616 29.2641 14.0621L22.6372 14.0751C22.618 14.0751 22.6002 14.0693 22.5864 14.0597C22.5736 14.0505 22.5632 14.0366 22.5573 14.0193L20.5214 7.86613ZM21.7032 14.2864L19.6673 8.1338C19.6609 8.11502 19.651 8.10058 19.6387 8.09192C19.6278 8.08421 19.61 8.0794 19.5883 8.0794C19.5661 8.0794 19.5488 8.08373 19.538 8.09192C19.5257 8.10058 19.5158 8.11502 19.5094 8.1338L17.474 14.2864C17.4074 14.4872 17.282 14.6533 17.1182 14.7693C16.9554 14.8849 16.7555 14.9499 16.5399 14.9494L9.91358 14.9369C9.89434 14.9369 9.87658 14.9422 9.86276 14.9518C9.84993 14.9609 9.83957 14.9754 9.83365 14.9932C9.82773 15.0115 9.82723 15.0293 9.83217 15.0437C9.8371 15.0582 9.84796 15.0717 9.86424 15.0832L15.2328 18.8735C15.4065 18.9963 15.5289 19.1643 15.5915 19.352C15.6542 19.5403 15.6562 19.7458 15.5895 19.9452L13.53 26.0901C13.5235 26.1098 13.523 26.1277 13.528 26.1426C13.5324 26.1556 13.5433 26.1691 13.5596 26.1806C13.5768 26.1931 13.5941 26.1989 13.6089 26.1989C13.6247 26.1989 13.642 26.1931 13.6582 26.1816L19.0115 22.3711C19.1867 22.2464 19.388 22.1843 19.5883 22.1843C19.7892 22.1843 19.99 22.2464 20.1651 22.3711L25.5189 26.1816C25.5352 26.1931 25.5525 26.1989 25.5682 26.1989C25.583 26.1989 25.6003 26.1926 25.6176 26.1806C25.6339 26.1691 25.6447 26.1556 25.6492 26.1426C25.6541 26.1277 25.6536 26.1094 25.6472 26.0901L23.5871 19.9452C23.5205 19.7463 23.5225 19.5403 23.5851 19.352C23.6478 19.1638 23.7702 18.9963 23.9444 18.8735L29.3129 15.0832C29.3292 15.0717 29.34 15.0577 29.345 15.0437C29.3499 15.0293 29.3499 15.0115 29.3435 14.9932C29.3376 14.9749 29.3272 14.9609 29.3144 14.9518C29.3011 14.9422 29.2833 14.9364 29.2641 14.9369L22.6372 14.9494C22.4216 14.9499 22.2218 14.8849 22.0594 14.7693C21.8956 14.6533 21.7698 14.4872 21.7032 14.2864ZM15.1346 32.404C12.4957 31.679 10.1267 30.3262 8.20729 28.5208C8.19742 28.5622 8.18114 28.6027 8.15844 28.6417L1.89826 39.2206C1.89678 39.2225 1.89628 39.223 1.89628 39.223C1.89628 39.223 1.89727 39.2235 1.89974 39.2254C1.90122 39.2268 1.89924 39.2273 1.90023 39.2273L1.90467 39.2244L7.50316 36.0889C7.51797 36.0807 7.53277 36.0735 7.54807 36.0667C7.67685 36.0032 7.81403 35.9714 7.95219 35.9719C8.1091 35.9724 8.26256 36.0118 8.40319 36.0913C8.54332 36.1702 8.65484 36.281 8.73329 36.4134C8.81076 36.5443 8.85221 36.6935 8.85221 36.8524L8.85369 43.1197L8.85665 43.1206C8.85912 43.1216 8.86159 43.1211 8.86159 43.1211V43.1201L15.1346 32.404ZM30.8411 28.6407C28.9048 30.4234 26.5235 31.7512 23.8772 32.4488L30.1379 43.1216C30.1394 43.124 30.1369 43.124 30.1379 43.124C30.1379 43.124 30.1404 43.124 30.1429 43.1235L30.1458 43.1225L30.1453 43.1201L30.1468 36.8529C30.1468 36.694 30.1883 36.5448 30.2657 36.4138C30.3442 36.2814 30.4562 36.1707 30.5958 36.0918C30.7365 36.0123 30.8899 35.9729 31.0468 35.9724C31.2032 35.9719 31.3567 36.0114 31.4963 36.0894L37.0943 39.2249L37.0988 39.2278C37.0998 39.2278 37.0978 39.2273 37.0993 39.2259C37.1017 39.2235 37.1027 39.2235 37.1027 39.2235C37.1027 39.2235 37.1022 39.223 37.1008 39.221L30.8416 28.6412L30.8411 28.6407ZM30.549 6.30678C27.7438 3.57034 23.8689 1.87764 19.5883 1.87764C15.3078 1.87764 11.4329 3.57034 8.6277 6.30726C5.82253 9.04418 4.08762 12.8248 4.08762 17.0012C4.08762 21.1776 5.82253 24.9583 8.6277 27.6952C11.4329 30.4321 15.3078 32.1248 19.5883 32.1248C23.8684 32.1248 27.7438 30.4321 30.549 27.6952C33.3541 24.9583 35.089 21.1776 35.089 17.0012C35.089 12.8248 33.3541 9.0437 30.549 6.30678Z" stroke="black" mask="url(#path-1-outside-1_189_1343)"/>
</svg>
