<svg width="38" height="38" viewBox="0 0 38 38" fill="none" xmlns="http://www.w3.org/2000/svg">
<mask id="path-1-inside-1_203_1328" fill="white">
<path d="M0 36.1C0 36.6039 0.200178 37.0872 0.556497 37.4435C0.912816 37.7998 1.39609 38 1.9 38H36.1C36.6039 38 37.0872 37.7998 37.4435 37.4435C37.7998 37.0872 38 36.6039 38 36.1V12.8364H0V36.1ZM27.36 16.2792C27.362 15.948 27.495 15.6309 27.7299 15.3974C27.9649 15.1639 28.2827 15.0328 28.614 15.0328H31.3272C31.6571 15.0348 31.973 15.1668 32.2063 15.4001C32.4396 15.6334 32.5716 15.9493 32.5736 16.2792V19C32.5716 19.33 32.4396 19.6458 32.2063 19.8792C31.973 20.1125 31.6571 20.2444 31.3272 20.2464H28.652C28.4877 20.2474 28.3248 20.2159 28.1727 20.1537C28.0206 20.0915 27.8823 19.9999 27.7657 19.8841C27.6492 19.7682 27.5567 19.6305 27.4936 19.4788C27.4305 19.327 27.398 19.1643 27.398 19L27.36 16.2792ZM27.36 23.2712C27.3629 23.1052 27.3988 22.9415 27.4655 22.7894C27.5322 22.6374 27.6285 22.5002 27.7487 22.3856C27.8689 22.2711 28.0106 22.1816 28.1657 22.1222C28.3207 22.0629 28.486 22.035 28.652 22.04H31.3652C31.6958 22.044 32.0117 22.1776 32.2448 22.4122C32.4779 22.6467 32.6096 22.9634 32.6116 23.294V25.9996C32.6096 26.3296 32.4776 26.6454 32.2443 26.8788C32.011 27.1121 31.6951 27.244 31.3652 27.246H28.652C28.3207 27.246 28.0029 27.1149 27.7679 26.8814C27.533 26.6479 27.4 26.3309 27.398 25.9996L27.36 23.2712ZM20.0336 16.2792C20.0356 15.9493 20.1675 15.6334 20.4009 15.4001C20.6342 15.1668 20.95 15.0348 21.28 15.0328H24.016C24.1807 15.0318 24.3439 15.0633 24.4964 15.1254C24.649 15.1875 24.7878 15.279 24.9049 15.3947C25.0221 15.5105 25.1153 15.6482 25.1792 15.7999C25.2432 15.9517 25.2766 16.1145 25.2776 16.2792V19C25.2766 19.1647 25.2432 19.3276 25.1792 19.4793C25.1153 19.6311 25.0221 19.7688 24.9049 19.8845C24.7878 20.0003 24.649 20.0918 24.4964 20.1539C24.3439 20.216 24.1807 20.2474 24.016 20.2464H21.28C20.9561 20.2365 20.6487 20.1009 20.4231 19.8682C20.1975 19.6355 20.0714 19.3241 20.0716 19L20.0336 16.2792ZM20.0336 23.2712C20.0395 22.9439 20.1732 22.6319 20.4061 22.4019C20.639 22.1718 20.9526 22.042 21.28 22.04H24.016C24.1813 22.039 24.3452 22.0707 24.4982 22.1333C24.6512 22.1959 24.7904 22.2881 24.9076 22.4046C25.0249 22.5212 25.1179 22.6597 25.1814 22.8124C25.2449 22.965 25.2776 23.1287 25.2776 23.294V25.9996C25.2766 26.1643 25.2432 26.3272 25.1792 26.4789C25.1153 26.6307 25.0221 26.7684 24.9049 26.8841C24.7878 26.9998 24.649 27.0914 24.4964 27.1535C24.3439 27.2156 24.1807 27.247 24.016 27.246H21.28C20.9514 27.242 20.6374 27.1092 20.4057 26.8761C20.1741 26.643 20.0432 26.3283 20.0412 25.9996L20.0336 23.2712ZM12.6996 23.2712C12.7015 23.1056 12.7365 22.942 12.8024 22.79C12.8683 22.638 12.9638 22.5007 13.0834 22.3861C13.203 22.2714 13.3442 22.1818 13.4989 22.1224C13.6535 22.063 13.8184 22.035 13.984 22.04H16.72C17.0513 22.042 17.3683 22.175 17.6018 22.41C17.8353 22.6449 17.9664 22.9628 17.9664 23.294V25.9996C17.9585 26.3256 17.8239 26.6357 17.5912 26.8641C17.3586 27.0925 17.0461 27.2213 16.72 27.2232H13.984C13.82 27.2242 13.6575 27.1927 13.5058 27.1304C13.3541 27.0681 13.2163 26.9763 13.1004 26.8604C12.9845 26.7445 12.8927 26.6067 12.8304 26.455C12.7681 26.3033 12.7366 26.1408 12.7376 25.9768L12.6996 23.2712ZM12.6996 30.2784C12.6986 30.1141 12.7301 29.9512 12.7923 29.7991C12.8545 29.647 12.9461 29.5087 13.062 29.3922C13.1778 29.2756 13.3155 29.1831 13.4673 29.12C13.619 29.0569 13.7817 29.0244 13.946 29.0244H16.72C17.0513 29.0264 17.3683 29.1594 17.6018 29.3944C17.8353 29.6293 17.9664 29.9471 17.9664 30.2784V32.984C17.9566 33.3087 17.8211 33.6168 17.5887 33.8436C17.3562 34.0704 17.0448 34.1982 16.72 34.2H13.984C13.82 34.201 13.6575 34.1695 13.5058 34.1072C13.3541 34.0449 13.2163 33.9531 13.1004 33.8372C12.9845 33.7213 12.8927 33.5835 12.8304 33.4318C12.7681 33.2801 12.7366 33.1176 12.7376 32.9536L12.6996 30.2784ZM5.396 23.2712C5.4019 22.9452 5.53455 22.6343 5.76581 22.4045C5.99707 22.1747 6.30876 22.0439 6.63479 22.04H9.34799C9.51394 22.035 9.67924 22.0629 9.8343 22.1222C9.98936 22.1816 10.1311 22.2711 10.2513 22.3856C10.3715 22.5002 10.4677 22.6374 10.5344 22.7894C10.6012 22.9415 10.6371 23.1052 10.64 23.2712V25.9768C10.638 26.3081 10.505 26.6251 10.27 26.8586C10.0351 27.0921 9.71726 27.2232 9.38599 27.2232H6.63479C6.30617 27.2192 5.99223 27.0864 5.76055 26.8533C5.52887 26.6202 5.39796 26.3055 5.396 25.9768V23.2712ZM5.396 30.2784C5.39597 29.9485 5.526 29.6318 5.75789 29.397C5.98979 29.1623 6.30485 29.0284 6.63479 29.0244H9.34799C9.51584 29.0193 9.683 29.048 9.83956 29.1087C9.99611 29.1695 10.1389 29.261 10.2594 29.378C10.3799 29.4949 10.4757 29.6349 10.541 29.7896C10.6064 29.9443 10.6401 30.1105 10.64 30.2784V32.984C10.6351 33.1487 10.5978 33.3108 10.5301 33.4611C10.4625 33.6114 10.366 33.7468 10.246 33.8598C10.126 33.9727 9.98494 34.0609 9.83086 34.1193C9.67677 34.1776 9.51269 34.2051 9.34799 34.2H6.63479C6.31133 34.1962 6.00184 34.0676 5.77099 33.841C5.54013 33.6144 5.40578 33.3074 5.396 32.984V30.2784Z"/>
</mask>
<path d="M0 36.1C0 36.6039 0.200178 37.0872 0.556497 37.4435C0.912816 37.7998 1.39609 38 1.9 38H36.1C36.6039 38 37.0872 37.7998 37.4435 37.4435C37.7998 37.0872 38 36.6039 38 36.1V12.8364H0V36.1ZM27.36 16.2792C27.362 15.948 27.495 15.6309 27.7299 15.3974C27.9649 15.1639 28.2827 15.0328 28.614 15.0328H31.3272C31.6571 15.0348 31.973 15.1668 32.2063 15.4001C32.4396 15.6334 32.5716 15.9493 32.5736 16.2792V19C32.5716 19.33 32.4396 19.6458 32.2063 19.8792C31.973 20.1125 31.6571 20.2444 31.3272 20.2464H28.652C28.4877 20.2474 28.3248 20.2159 28.1727 20.1537C28.0206 20.0915 27.8823 19.9999 27.7657 19.8841C27.6492 19.7682 27.5567 19.6305 27.4936 19.4788C27.4305 19.327 27.398 19.1643 27.398 19L27.36 16.2792ZM27.36 23.2712C27.3629 23.1052 27.3988 22.9415 27.4655 22.7894C27.5322 22.6374 27.6285 22.5002 27.7487 22.3856C27.8689 22.2711 28.0106 22.1816 28.1657 22.1222C28.3207 22.0629 28.486 22.035 28.652 22.04H31.3652C31.6958 22.044 32.0117 22.1776 32.2448 22.4122C32.4779 22.6467 32.6096 22.9634 32.6116 23.294V25.9996C32.6096 26.3296 32.4776 26.6454 32.2443 26.8788C32.011 27.1121 31.6951 27.244 31.3652 27.246H28.652C28.3207 27.246 28.0029 27.1149 27.7679 26.8814C27.533 26.6479 27.4 26.3309 27.398 25.9996L27.36 23.2712ZM20.0336 16.2792C20.0356 15.9493 20.1675 15.6334 20.4009 15.4001C20.6342 15.1668 20.95 15.0348 21.28 15.0328H24.016C24.1807 15.0318 24.3439 15.0633 24.4964 15.1254C24.649 15.1875 24.7878 15.279 24.9049 15.3947C25.0221 15.5105 25.1153 15.6482 25.1792 15.7999C25.2432 15.9517 25.2766 16.1145 25.2776 16.2792V19C25.2766 19.1647 25.2432 19.3276 25.1792 19.4793C25.1153 19.6311 25.0221 19.7688 24.9049 19.8845C24.7878 20.0003 24.649 20.0918 24.4964 20.1539C24.3439 20.216 24.1807 20.2474 24.016 20.2464H21.28C20.9561 20.2365 20.6487 20.1009 20.4231 19.8682C20.1975 19.6355 20.0714 19.3241 20.0716 19L20.0336 16.2792ZM20.0336 23.2712C20.0395 22.9439 20.1732 22.6319 20.4061 22.4019C20.639 22.1718 20.9526 22.042 21.28 22.04H24.016C24.1813 22.039 24.3452 22.0707 24.4982 22.1333C24.6512 22.1959 24.7904 22.2881 24.9076 22.4046C25.0249 22.5212 25.1179 22.6597 25.1814 22.8124C25.2449 22.965 25.2776 23.1287 25.2776 23.294V25.9996C25.2766 26.1643 25.2432 26.3272 25.1792 26.4789C25.1153 26.6307 25.0221 26.7684 24.9049 26.8841C24.7878 26.9998 24.649 27.0914 24.4964 27.1535C24.3439 27.2156 24.1807 27.247 24.016 27.246H21.28C20.9514 27.242 20.6374 27.1092 20.4057 26.8761C20.1741 26.643 20.0432 26.3283 20.0412 25.9996L20.0336 23.2712ZM12.6996 23.2712C12.7015 23.1056 12.7365 22.942 12.8024 22.79C12.8683 22.638 12.9638 22.5007 13.0834 22.3861C13.203 22.2714 13.3442 22.1818 13.4989 22.1224C13.6535 22.063 13.8184 22.035 13.984 22.04H16.72C17.0513 22.042 17.3683 22.175 17.6018 22.41C17.8353 22.6449 17.9664 22.9628 17.9664 23.294V25.9996C17.9585 26.3256 17.8239 26.6357 17.5912 26.8641C17.3586 27.0925 17.0461 27.2213 16.72 27.2232H13.984C13.82 27.2242 13.6575 27.1927 13.5058 27.1304C13.3541 27.0681 13.2163 26.9763 13.1004 26.8604C12.9845 26.7445 12.8927 26.6067 12.8304 26.455C12.7681 26.3033 12.7366 26.1408 12.7376 25.9768L12.6996 23.2712ZM12.6996 30.2784C12.6986 30.1141 12.7301 29.9512 12.7923 29.7991C12.8545 29.647 12.9461 29.5087 13.062 29.3922C13.1778 29.2756 13.3155 29.1831 13.4673 29.12C13.619 29.0569 13.7817 29.0244 13.946 29.0244H16.72C17.0513 29.0264 17.3683 29.1594 17.6018 29.3944C17.8353 29.6293 17.9664 29.9471 17.9664 30.2784V32.984C17.9566 33.3087 17.8211 33.6168 17.5887 33.8436C17.3562 34.0704 17.0448 34.1982 16.72 34.2H13.984C13.82 34.201 13.6575 34.1695 13.5058 34.1072C13.3541 34.0449 13.2163 33.9531 13.1004 33.8372C12.9845 33.7213 12.8927 33.5835 12.8304 33.4318C12.7681 33.2801 12.7366 33.1176 12.7376 32.9536L12.6996 30.2784ZM5.396 23.2712C5.4019 22.9452 5.53455 22.6343 5.76581 22.4045C5.99707 22.1747 6.30876 22.0439 6.63479 22.04H9.34799C9.51394 22.035 9.67924 22.0629 9.8343 22.1222C9.98936 22.1816 10.1311 22.2711 10.2513 22.3856C10.3715 22.5002 10.4677 22.6374 10.5344 22.7894C10.6012 22.9415 10.6371 23.1052 10.64 23.2712V25.9768C10.638 26.3081 10.505 26.6251 10.27 26.8586C10.0351 27.0921 9.71726 27.2232 9.38599 27.2232H6.63479C6.30617 27.2192 5.99223 27.0864 5.76055 26.8533C5.52887 26.6202 5.39796 26.3055 5.396 25.9768V23.2712ZM5.396 30.2784C5.39597 29.9485 5.526 29.6318 5.75789 29.397C5.98979 29.1623 6.30485 29.0284 6.63479 29.0244H9.34799C9.51584 29.0193 9.683 29.048 9.83956 29.1087C9.99611 29.1695 10.1389 29.261 10.2594 29.378C10.3799 29.4949 10.4757 29.6349 10.541 29.7896C10.6064 29.9443 10.6401 30.1105 10.64 30.2784V32.984C10.6351 33.1487 10.5978 33.3108 10.5301 33.4611C10.4625 33.6114 10.366 33.7468 10.246 33.8598C10.126 33.9727 9.98494 34.0609 9.83086 34.1193C9.67677 34.1776 9.51269 34.2051 9.34799 34.2H6.63479C6.31133 34.1962 6.00184 34.0676 5.77099 33.841C5.54013 33.6144 5.40578 33.3074 5.396 32.984V30.2784Z" stroke="black" stroke-width="2" mask="url(#path-1-inside-1_203_1328)"/>
<path d="M7.89609 0.5H10.3129C11.0861 0.5 11.7129 1.1268 11.7129 1.9V7.22C11.7129 7.99319 11.0861 8.61999 10.3129 8.61999H7.89609C7.12289 8.61999 6.49609 7.99319 6.49609 7.22V1.9C6.49609 1.1268 7.12289 0.5 7.89609 0.5Z" stroke="black"/>
<path d="M36.0924 4.29988L36.0964 4.29985C36.2807 4.29837 36.4634 4.33348 36.634 4.40314C36.8046 4.4728 36.9597 4.57563 37.0902 4.70566C37.2208 4.8357 37.3242 4.99036 37.3946 5.16067C37.4649 5.33099 37.5007 5.51357 37.5 5.69784V5.69986V10.8163H31.6632C32.1113 10.6219 32.5234 10.3438 32.8755 9.99172C33.6106 9.25658 34.0236 8.25951 34.0236 7.21986V4.29987L36.0924 4.29988ZM6.34282 10.8163H0.500015V5.69986H0.50002L0.500011 5.69784C0.499265 5.51357 0.535102 5.33099 0.605444 5.16068C0.675786 4.99036 0.779233 4.8357 0.909791 4.70567C1.04035 4.57563 1.19542 4.4728 1.36601 4.40314C1.53661 4.33348 1.71933 4.29837 1.90359 4.29985L1.90359 4.29987H1.90761H3.97641L3.97641 7.21986L3.97641 7.22097C3.97871 8.25962 4.39233 9.25507 5.12677 9.9895C5.47986 10.3426 5.89328 10.6215 6.34282 10.8163ZM14.2332 4.29987H23.7668L23.7668 7.21986L23.7668 7.22097C23.7691 8.25962 24.1827 9.25507 24.9172 9.9895C25.2702 10.3426 25.6837 10.6215 26.1332 10.8163H11.8668C12.3163 10.6215 12.7298 10.3426 13.0828 9.9895C13.8173 9.25507 14.2309 8.25962 14.2332 7.22097V7.21986V4.29987Z" stroke="black"/>
<path d="M27.6871 0.5H30.1039C30.8771 0.5 31.5039 1.1268 31.5039 1.9V7.22C31.5039 7.99319 30.8771 8.61999 30.1039 8.61999H27.6871C26.9139 8.61999 26.2871 7.99319 26.2871 7.22V1.9C26.2871 1.1268 26.9139 0.5 27.6871 0.5Z" stroke="black"/>
</svg>
