<svg width="93" height="98" viewBox="0 0 93 98" fill="none" xmlns="http://www.w3.org/2000/svg">
<path d="M35.5457 3.37354C21.5425 10.6459 18.9154 28.3759 30.1312 38.9906C34.9265 43.5622 38.9742 45.0176 46.1614 44.9695C53.6716 44.9192 56.6522 43.8068 61.6292 39.3259C66.686 34.6883 68.5985 30.8522 69.0375 24.0608C69.3281 19.2211 69.0765 17.8183 67.2753 14.163C64.7364 8.87409 61.7281 5.85114 56.6227 3.23238C53.3003 1.53801 51.6023 1.23727 46.0303 1.27459C40.4582 1.31191 38.7644 1.63536 35.5457 3.37354Z" fill="black"/>
<path d="M26.4119 50.4856C14.8072 54.1527 5.90249 63.0295 2.42453 74.2888C0.686592 80.0745 0.383153 95.058 2.0087 96.6077C2.7402 97.305 8.79838 97.4985 24.3841 97.3941L45.8649 97.2503L37.4933 89.2694C32.9417 84.9303 29.1993 80.8199 29.1951 80.1957C29.1904 79.4935 31.3254 72.6907 33.9385 64.9485C36.5517 57.2062 38.6871 50.4815 38.6835 49.9353C38.6736 48.4528 31.8917 48.7323 26.4119 50.4856Z" fill="black"/>
<path d="M54.0235 49.8326C54.0272 50.3787 56.2525 57.0743 58.9691 64.7809C61.6858 72.4874 63.9116 79.261 63.9163 79.9632C63.9205 80.5874 60.2335 84.7476 55.7405 89.1473L47.4766 97.2395L69.0381 97.0951C89.5498 96.9577 90.6799 96.8721 91.478 95.4623C91.8761 94.6013 92.2521 90.4633 92.2239 86.2499C92.1643 77.3551 90.3444 70.891 86.4284 64.9871C83.4107 60.5597 76.9106 54.6731 72.6972 52.5945C65.7298 49.286 54.0078 47.4918 54.0235 49.8326Z" fill="black"/>
<path d="M45.6585 54.4142C45.4204 55.04 43.6793 60.3576 41.6997 66.223C39.7205 72.1664 38.0607 77.5614 38.0665 78.4197C38.0759 79.8242 45.2314 87.1109 46.685 87.1011C47.9771 87.0925 55.0344 79.7106 55.025 78.3061C55.0156 76.9017 47.1121 54.4045 46.4614 53.7066C46.2175 53.4741 45.8158 53.7889 45.6585 54.4142Z" fill="black"/>
</svg>
