<svg width="73" height="94" viewBox="0 0 73 94" fill="none" xmlns="http://www.w3.org/2000/svg">
<path fill-rule="evenodd" clip-rule="evenodd" d="M0 36.5769C0 16.3938 16.327 0 36.5 0C56.673 0 73 16.3928 73 36.5769C73 41.1138 71.3379 46.2707 69.0322 51.3382C66.6899 56.483 63.5165 61.8894 60.1517 67.0291C53.418 77.3187 45.7227 86.8289 41.7995 91.5123C39.0212 94.8292 33.9781 94.8292 31.1999 91.5123C27.277 86.8285 19.5814 77.3181 12.8477 67.0291C9.4828 61.8884 6.30949 56.4822 3.96713 51.3382C1.66148 46.2709 0 41.1139 0 36.5769ZM25.9046 36.43C25.9046 30.5917 30.6463 25.8549 36.5 25.8549C42.3537 25.8549 47.0954 30.5917 47.0954 36.43C47.0954 42.2725 42.3537 47.0094 36.5 47.0094C30.6463 47.0094 25.9046 42.2725 25.9046 36.43Z" fill="black"/>
</svg>
