<svg width="904" height="312" viewBox="0 0 904 312" fill="none" xmlns="http://www.w3.org/2000/svg">
<path d="M27.276 0.20714C17.487 0.20714 9.48715 8.20696 9.43393 18.0493L9.43394 41.8382C4.22362 45.1538 0.749916 51.0485 0.75 57.6798L0.750023 230.099C0.750024 250.098 7.59197 269.571 19.8536 285.307L19.8536 298.044C19.8536 302.149 23.1692 305.465 27.2744 305.465C29.3796 305.465 31.1689 304.622 32.5375 303.254C33.906 301.885 34.6954 300.043 34.748 297.991L34.7481 285.254C47.011 269.518 53.853 250.045 53.8516 230.046L53.8516 76.2606L62.1673 76.2606C64.1673 76.2606 65.8516 77.9449 65.9042 79.9975L65.852 128.365C65.852 132.471 69.1676 135.786 73.2728 135.786C75.378 135.786 77.1673 134.944 78.5359 133.575C79.9045 132.207 80.6938 130.365 80.7465 128.312L80.7987 79.8401C80.6934 69.6299 72.3778 61.3143 62.2206 61.2621L53.9048 61.2621L53.9048 57.4727C53.9048 50.8411 50.4312 44.9467 45.2209 41.631L45.2209 17.8421C45.2209 8.05303 37.2211 0.0532201 27.3788 0L27.276 0.20714ZM15.6451 57.7317C15.6451 56.6791 16.0662 55.6265 16.803 54.8897C17.5398 54.1528 18.5398 53.6792 19.6451 53.7318H34.9077C37.1182 53.7318 38.9077 55.5213 38.9076 57.7317V76.9946L15.6452 76.9946L15.6451 57.7317ZM38.9073 91.8358L38.9073 209.623H15.6448L15.6448 91.8358L38.9073 91.8358ZM27.2764 270.2C19.7503 258.253 15.6452 244.358 15.6447 230.148L15.6446 224.463L38.9071 224.463V230.148C38.9071 244.358 34.8555 258.305 27.2764 270.2ZM30.2237 17.995V38.7312H24.3291L24.3291 17.995C24.3291 16.4161 25.6448 15.1004 27.2764 15.0477C28.8553 15.0477 30.171 16.3635 30.2237 17.995Z" fill="#FBFBFB"/>
<path d="M775.926 217.254C775.926 198.575 781.125 184.036 791.524 173.637C801.923 163.045 816.462 157.749 835.142 157.749H844.096C862.776 157.749 877.315 163.045 887.714 173.637C898.305 184.036 903.601 198.575 903.601 217.254V308.245H879.626V217.832C879.626 206.47 876.352 197.516 869.805 190.968C863.45 184.421 854.591 181.147 843.23 181.147H836.008C824.839 181.147 815.981 184.421 809.433 190.968C803.078 197.516 799.901 206.47 799.901 217.832V308.245H775.926V217.254Z" fill="#FCB80A"/>
<path d="M679.385 312C660.32 312 645.396 306.608 634.612 295.824C623.828 285.04 618.436 270.212 618.436 251.339V218.41C618.436 199.345 623.828 184.517 634.612 173.926C645.396 163.141 660.32 157.749 679.385 157.749H688.339C707.404 157.749 722.232 163.141 732.823 173.926C743.607 184.517 748.999 199.345 748.999 218.41V246.14H642.411V251.628C642.411 263.375 645.685 272.619 652.232 279.359C658.779 285.906 667.83 289.18 679.385 289.18H688.339C697.198 289.18 704.612 287.158 710.581 283.114C716.551 279.07 720.691 273.678 723.002 266.938H747.844C745.148 281.188 738.601 292.261 728.202 300.157C717.803 308.052 704.515 312 688.339 312H679.385ZM725.313 224.765V217.543C725.313 205.796 722.039 196.553 715.492 189.813C708.944 183.073 699.894 179.703 688.339 179.703H679.385C667.83 179.703 658.779 183.073 652.232 189.813C645.685 196.553 642.411 205.796 642.411 217.543V224.765H725.313Z" fill="#FBFBFB"/>
<path d="M375.922 217.254C375.922 198.767 380.929 184.228 390.942 173.637C400.956 163.045 414.918 157.749 432.827 157.749H437.16C448.907 157.749 458.728 160.06 466.623 164.682C474.711 169.304 480.777 175.466 484.821 183.169C488.865 175.466 494.835 169.304 502.731 164.682C510.819 160.06 520.64 157.749 532.194 157.749H536.816C554.533 157.749 568.398 163.045 578.411 173.637C588.618 184.228 593.721 198.767 593.721 217.254V308.245H569.746V218.121C569.746 207.144 566.568 198.286 560.213 191.546C554.051 184.613 545.77 181.147 535.372 181.147H531.039C520.64 181.147 512.263 184.613 505.908 191.546C499.746 198.286 496.665 207.144 496.665 218.121V308.245H472.689V218.121C472.689 206.952 469.608 197.997 463.446 191.257C457.284 184.517 449.003 181.147 438.604 181.147H433.982C423.583 181.147 415.303 184.517 409.141 191.257C402.978 197.997 399.897 206.952 399.897 218.121V308.245H375.922V217.254Z" fill="#FBFBFB"/>
<path d="M279.157 312C260.285 312 245.553 306.801 234.962 296.402C224.563 285.81 219.363 271.078 219.363 252.206V161.216H243.339V251.917C243.339 263.279 246.516 272.234 252.871 278.781C259.226 285.329 267.891 288.602 278.868 288.602H286.09C297.066 288.602 305.732 285.329 312.087 278.781C318.634 272.234 321.908 263.279 321.908 251.917V161.216H345.883V252.206C345.883 270.886 340.587 285.521 329.996 296.113C319.597 306.704 304.962 312 286.09 312H279.157Z" fill="#FBFBFB"/>
<path fill-rule="evenodd" clip-rule="evenodd" d="M57.2512 293.136C45.8069 293.327 38.5562 296.261 34.1829 301.727C31.3665 305.248 26.2292 305.819 22.7086 303.002C19.188 300.186 18.6172 295.048 21.4337 291.528C30.1221 280.667 43.1706 277.042 56.9784 276.812C70.7386 276.582 86.7162 279.674 103.26 283.81C122.773 288.688 135.587 290.842 146.878 290.114C157.889 289.403 168.116 285.896 182.216 278.063C186.157 275.873 191.127 277.293 193.316 281.234C195.506 285.175 194.086 290.145 190.145 292.335C174.856 300.829 162.225 305.485 147.929 306.407C133.913 307.311 118.972 304.567 99.2998 299.649C82.9704 295.567 68.743 292.944 57.2512 293.136Z" fill="#FBFBFB"/>
</svg>
