<svg version="1.1" xmlns="http://www.w3.org/2000/svg" xmlns:xlink="http://www.w3.org/1999/xlink" width="30" height="30" viewBox="0,0,256,256"><g fill="#fcb80a" fill-rule="evenodd" stroke="none" stroke-width="1" stroke-linecap="butt" stroke-linejoin="miter" stroke-miterlimit="10" stroke-dasharray="" stroke-dashoffset="0" font-family="none" font-weight="none" font-size="none" text-anchor="none" style="mix-blend-mode: normal"><g transform="scale(8.53333,8.53333)"><path d="M15,30c8.2843,0 15,-6.7157 15,-15c0,-8.28427 -6.7157,-15 -15,-15c-8.28427,0 -15,6.71573 -15,15c0,8.2843 6.71573,15 15,15zM15,28.5c7.4558,0 13.5,-6.0442 13.5,-13.5c0,-7.45584 -6.0442,-13.5 -13.5,-13.5c-7.45584,0 -13.5,6.04416 -13.5,13.5c0,7.4558 6.04416,13.5 13.5,13.5zM15.6068,9c0.9023,0 1.6241,-0.71429 1.6241,-1.66667c0,-0.85715 -0.6767,-1.33333 -1.376,-1.33333c-0.9022,0 -1.624,0.76191 -1.624,1.66667c0,0.85715 0.6767,1.33333 1.3759,1.33333zM11.9809,22.5h2.3592l2.1408,-12h-2.3374z"></path></g></g></svg>