<svg width="30" height="30" viewBox="0 0 30 30" fill="none" xmlns="http://www.w3.org/2000/svg">
<path fill-rule="evenodd" clip-rule="evenodd" d="M15 30C23.2843 30 30 23.2843 30 15C30 6.71573 23.2843 0 15 0C6.71573 0 0 6.71573 0 15C0 23.2843 6.71573 30 15 30ZM15 28.5C22.4558 28.5 28.5 22.4558 28.5 15C28.5 7.54416 22.4558 1.5 15 1.5C7.54416 1.5 1.5 7.54416 1.5 15C1.5 22.4558 7.54416 28.5 15 28.5ZM15.6068 9C16.5091 9 17.2309 8.28571 17.2309 7.33333C17.2309 6.47618 16.5542 6 15.8549 6C14.9527 6 14.2309 6.76191 14.2309 7.66667C14.2309 8.52382 14.9076 9 15.6068 9ZM11.9809 22.5H14.3401L16.4809 10.5H14.1435L11.9809 22.5Z" fill="black"/>
</svg>
