<svg width="87" height="87" viewBox="0 0 87 87" fill="none" xmlns="http://www.w3.org/2000/svg">
<path d="M0 82.6502C0 83.8038 0.458302 84.9103 1.27408 85.7261C2.08987 86.5419 3.19631 87.0002 4.35 87.0002H82.6499C83.8036 87.0002 84.9101 86.5419 85.7259 85.7261C86.5416 84.9103 86.9999 83.8038 86.9999 82.6502V29.3888H0V82.6502ZM62.64 37.271C62.6446 36.5126 62.9491 35.7868 63.487 35.2521C64.0249 34.7175 64.7525 34.4174 65.511 34.4174H71.7228C72.4782 34.4219 73.2013 34.7241 73.7355 35.2582C74.2697 35.7924 74.5718 36.5156 74.5763 37.271V43.5002C74.5718 44.2556 74.2697 44.9788 73.7355 45.5129C73.2013 46.0471 72.4782 46.3492 71.7228 46.3538H65.598C65.2218 46.3561 64.8488 46.284 64.5006 46.1416C64.1524 45.9992 63.8357 45.7894 63.5689 45.5242C63.3021 45.2589 63.0903 44.9436 62.9458 44.5962C62.8013 44.2489 62.7269 43.8764 62.727 43.5002L62.64 37.271ZM62.64 53.279C62.6467 52.8989 62.7288 52.524 62.8816 52.176C63.0344 51.8279 63.2547 51.5136 63.5299 51.2514C63.8051 50.9892 64.1296 50.7842 64.4846 50.6484C64.8396 50.5126 65.218 50.4486 65.598 50.4602H71.8098C72.5667 50.4693 73.2899 50.7752 73.8236 51.3122C74.3573 51.8491 74.6588 52.5741 74.6633 53.3312V59.5256C74.6588 60.281 74.3567 61.0042 73.8225 61.5383C73.2883 62.0725 72.5652 62.3746 71.8098 62.3792H65.598C64.8395 62.3792 64.1119 62.0791 63.574 61.5444C63.0361 61.0098 62.7316 60.284 62.727 59.5256L62.64 53.279ZM45.8664 37.271C45.8709 36.5156 46.173 35.7924 46.7072 35.2582C47.2414 34.7241 47.9646 34.4219 48.72 34.4174H54.984C55.361 34.4151 55.7348 34.4871 56.084 34.6293C56.4332 34.7714 56.751 34.981 57.0192 35.246C57.2874 35.5109 57.5008 35.8262 57.6472 36.1736C57.7936 36.5211 57.8701 36.894 57.8724 37.271V43.5002C57.8701 43.8772 57.7936 44.2501 57.6472 44.5975C57.5008 44.945 57.2874 45.2602 57.0192 45.5252C56.751 45.7902 56.4332 45.9997 56.084 46.1419C55.7348 46.2841 55.361 46.3561 54.984 46.3538H48.72C47.9783 46.3312 47.2747 46.0206 46.7582 45.4878C46.2417 44.9551 45.953 44.2422 45.9534 43.5002L45.8664 37.271ZM45.8664 53.279C45.88 52.5296 46.1861 51.8153 46.7193 51.2886C47.2525 50.7619 47.9705 50.4646 48.72 50.4602H54.984C55.3624 50.4579 55.7377 50.5305 56.088 50.6737C56.4383 50.817 56.7569 51.0281 57.0253 51.2949C57.2938 51.5617 57.5068 51.879 57.6522 52.2285C57.7975 52.5779 57.8724 52.9527 57.8724 53.3312V59.5256C57.8701 59.9026 57.7936 60.2755 57.6472 60.6229C57.5008 60.9704 57.2874 61.2856 57.0192 61.5506C56.751 61.8156 56.4332 62.0251 56.084 62.1673C55.7348 62.3095 55.361 62.3815 54.984 62.3792H48.72C47.9676 62.3701 47.2488 62.0659 46.7184 61.5323C46.188 60.9986 45.8883 60.278 45.8838 59.5256L45.8664 53.279ZM29.0754 53.279C29.0798 52.8997 29.1598 52.5252 29.3107 52.1772C29.4616 51.8293 29.6803 51.5149 29.9541 51.2524C30.2279 50.99 30.5512 50.7847 30.9053 50.6487C31.2593 50.5127 31.6369 50.4486 32.016 50.4602H38.28C39.0384 50.4648 39.7642 50.7693 40.2988 51.3072C40.8335 51.8451 41.1336 52.5727 41.1336 53.3312V59.5256C41.1155 60.2719 40.8074 60.9818 40.2747 61.5048C39.742 62.0278 39.0265 62.3227 38.28 62.327H32.016C31.6406 62.3293 31.2685 62.257 30.9212 62.1145C30.574 61.9719 30.2585 61.7618 29.993 61.4963C29.7276 61.2309 29.5175 60.9154 29.3749 60.5681C29.2323 60.2209 29.1601 59.8488 29.1624 59.4734L29.0754 53.279ZM29.0754 69.3218C29.0731 68.9456 29.1452 68.5726 29.2876 68.2244C29.43 67.8762 29.6398 67.5595 29.905 67.2927C30.1702 67.0259 30.4856 66.8141 30.8329 66.6696C31.1803 66.5251 31.5528 66.4508 31.929 66.4508H38.28C39.0384 66.4554 39.7642 66.7599 40.2988 67.2978C40.8335 67.8357 41.1336 68.5633 41.1336 69.3218V75.5162C41.111 76.2594 40.801 76.9649 40.2688 77.4842C39.7365 78.0035 39.0236 78.296 38.28 78.3002H32.016C31.6406 78.3025 31.2685 78.2302 30.9212 78.0876C30.574 77.9451 30.2585 77.7349 29.993 77.4695C29.7276 77.2041 29.5175 76.8886 29.3749 76.5413C29.2323 76.1941 29.1601 75.8219 29.1624 75.4466L29.0754 69.3218ZM12.354 53.279C12.3675 52.5326 12.6712 51.8209 13.2007 51.2946C13.7301 50.7684 14.4438 50.4691 15.1902 50.4602H21.402C21.7819 50.4486 22.1604 50.5126 22.5154 50.6484C22.8704 50.7842 23.1949 50.9892 23.47 51.2514C23.7452 51.5136 23.9656 51.8279 24.1183 52.176C24.2711 52.524 24.3532 52.8989 24.36 53.279V59.4734C24.3554 60.2318 24.0509 60.9576 23.513 61.4922C22.975 62.0269 22.2474 62.327 21.489 62.327H15.1902C14.4378 62.3179 13.7191 62.0137 13.1886 61.4801C12.6582 60.9464 12.3585 60.2258 12.354 59.4734V53.279ZM12.354 69.3218C12.3539 68.5663 12.6516 67.8413 13.1825 67.3039C13.7135 66.7664 14.4348 66.4599 15.1902 66.4508H21.402C21.7863 66.4391 22.169 66.5048 22.5274 66.6438C22.8858 66.7829 23.2127 66.9925 23.4886 67.2603C23.7644 67.528 23.9837 67.8485 24.1334 68.2026C24.2831 68.5567 24.3602 68.9373 24.36 69.3218V75.5162C24.3487 75.8932 24.2633 76.2644 24.1085 76.6084C23.9537 76.9525 23.7327 77.2626 23.4579 77.5212C23.1832 77.7797 22.8603 77.9816 22.5075 78.1153C22.1547 78.2489 21.7791 78.3118 21.402 78.3002H15.1902C14.4496 78.2915 13.7411 77.997 13.2125 77.4782C12.684 76.9594 12.3764 76.2564 12.354 75.5162V69.3218Z" fill="black"/>
<path d="M23.6117 0H18.0785C15.6761 0 13.7285 1.94756 13.7285 4.35V16.53C13.7285 18.9324 15.6761 20.88 18.0785 20.88H23.6117C26.0141 20.88 27.9617 18.9324 27.9617 16.53V4.35C27.9617 1.94756 26.0141 0 23.6117 0Z" fill="black"/>
<path d="M82.6326 8.69961H76.7514V16.5296C76.7514 18.6062 75.9264 20.5978 74.458 22.0662C72.9896 23.5347 70.998 24.3596 68.9214 24.3596H63.3882C61.313 24.355 59.324 23.5286 57.8566 22.0612C56.3892 20.5938 55.5628 18.6048 55.5582 16.5296V8.69961H31.4418V16.5296C31.4372 18.6048 30.6108 20.5938 29.1434 22.0612C27.676 23.5286 25.687 24.355 23.6118 24.3596H18.0786C16.0034 24.355 14.0145 23.5286 12.5471 22.0612C11.0796 20.5938 10.2532 18.6048 10.2486 16.5296V8.69961H4.36743C3.79408 8.695 3.22551 8.80424 2.69469 9.021C2.16387 9.23776 1.68135 9.55773 1.27511 9.96235C0.868865 10.367 0.546977 10.8482 0.328101 11.3782C0.109224 11.9081 -0.00228573 12.4762 3.55075e-05 13.0496V25.9082H87V13.0496C87.0023 12.4762 86.8908 11.9081 86.6719 11.3782C86.453 10.8482 86.1311 10.367 85.7249 9.96235C85.3187 9.55773 84.8361 9.23776 84.3053 9.021C83.7745 8.80424 83.2059 8.695 82.6326 8.69961Z" fill="black"/>
<path d="M68.9223 0H63.3891C60.9866 0 59.0391 1.94756 59.0391 4.35V16.53C59.0391 18.9324 60.9866 20.88 63.3891 20.88H68.9223C71.3247 20.88 73.2723 18.9324 73.2723 16.53V4.35C73.2723 1.94756 71.3247 0 68.9223 0Z" fill="black"/>
</svg>
